<?xml version="1.0" encoding="UTF-8"?>
<svg width="513px" height="963px" viewBox="0 0 513 963" version="1.1" xmlns="http://www.w3.org/2000/svg" xmlns:xlink="http://www.w3.org/1999/xlink">
    <!-- Generator: Sketch 55.1 (78136) - https://sketchapp.com -->
    <title>Shape</title>
    <desc>Created with Sketch.</desc>
    <g id="gateway---tela-grande" stroke="none" stroke-width="1" fill="none" fill-rule="evenodd">
        <g id="Artboard" fill="#082558">
            <path d="M181.211168,0 L512.5,0 L512.5,276.573071 C512.5,291.27161 500.525314,301 488.048464,301 C482.061121,301 475.977207,298.784624 471.032821,293.814476 L190.651341,12.635099 C186.824621,8.79772128 183.677897,4.53575953 181.211168,0 L181.211168,0 Z M112.075031,0 L215.735683,103.955645 C215.813121,104.031606 215.890288,104.108232 215.967179,104.185524 L496.348659,385.364901 C517.88378,406.960001 517.88378,442.001471 496.348659,463.615835 L325.582037,634.868417 C323.879568,637.230569 321.968443,639.488251 319.848659,641.615835 L162.167029,799.746189 C160.839306,801.432374 159.399849,803.058937 157.848659,804.615835 L0,962.913693 L0,0 L112.075031,0 Z" id="Shape"></path>
        </g>
    </g>
</svg>