<?xml version="1.0" encoding="UTF-8"?>
<svg width="171px" height="65px" viewBox="0 0 171 65" version="1.1" xmlns="http://www.w3.org/2000/svg" xmlns:xlink="http://www.w3.org/1999/xlink">
    <!-- Generator: Sketch 57.1 (83088) - https://sketch.com -->
    <title>logo_signature_jpm</title>
    <desc>Created with Sketch.</desc>
    <g id="💄-layout" stroke="none" stroke-width="1" fill="none" fill-rule="evenodd">
        <g id="logo_signature_jpm" fill="#FFFFFF" fill-rule="nonzero">
            <path d="M34.4378339,49 C33.6869059,48.9370188 32.8790169,48.7935353 33.0151145,47.728064 C33.2029552,46.2543987 34.3160853,46.0479341 35.434868,46.0029475 C36.2014494,45.9716937 37.0510808,46.1781583 36.9975983,47.1446592 C36.9049824,48.8120035 35.5714004,48.8243156 34.4378339,49" id="Fill-1"></path>
            <path d="M18.6013543,48 C17.8249789,47.9409634 16.9182335,47.8305077 17.0058961,46.6378722 C17.1146875,45.1629082 18.301953,45.1124414 19.3278295,45.0281713 C20.0493596,44.9686586 20.9844267,44.8977194 20.9997114,46.0241767 C21.0217395,47.6191184 19.7787296,47.7590924 18.6013543,48" id="Fill-3"></path>
            <path d="M110.816663,54.5572192 C111.770914,53.8456826 112.545109,53.2690033 113.319305,52.6913808 C113.45237,52.860188 113.585434,53.0294668 113.718034,53.198274 C113.162512,54.1526478 112.964775,55.6770995 110.816663,54.5572192 M105.105577,62.7792624 C104.543541,63.028701 103.937771,63.4394023 103.384575,62.9150626 C102.782526,62.34357 103.284544,61.7277538 103.562305,61.2090724 C105.170714,58.2153377 108.008344,56.6371317 111.023704,57.1907062 C109.132416,59.4417834 107.629621,61.6598537 105.105577,62.7792624 M117.103277,43.2046981 C116.435161,43.7596872 115.619558,44.2566783 114.792323,43.6465203 C113.96881,43.0396631 114.468035,42.1470595 114.768594,41.5100245 C116.289534,38.2937283 118.558615,35.8573404 122.041563,34.7973442 C122.447736,34.3460914 123.075839,34.1291883 123.344295,34.6672023 C123.616939,35.2132324 122.993953,35.3207409 122.5259,35.2990506 C120.726734,36.1119658 120.165628,37.8858561 119.427258,39.4895247 C118.806134,40.8380963 118.272944,42.2328778 117.103277,43.2046981 M94.3845555,40.3198864 C93.5987288,40.0704479 93.5954719,38.9114307 93.6447896,38.2470471 C93.6503727,37.4077262 93.6824758,36.7985114 94.0551503,36.2510667 C94.6762744,35.3381874 95.3755625,34.2098196 96.5787289,34.8138477 C97.8456361,35.4494681 96.9146478,36.552845 96.6187415,37.4402616 C96.4731145,37.8773686 96.297711,38.3319221 96.0250677,38.6926415 C95.5449177,39.3282619 95.3546258,40.6273231 94.3845555,40.3198864 M93.3526054,42.038608 C92.5370019,42.9156511 91.5255233,43.5960668 90.3293358,43.5333535 C89.2643521,43.4777131 88.9744942,42.5992555 89.2443459,41.633565 C89.651915,40.1741842 90.537773,39.008094 91.6846427,37.8547352 C92.080115,38.7803458 92.4434843,39.4711351 92.6672751,40.2057765 C92.8603587,40.8376249 94.3036,41.0163341 93.3526054,42.038608 M128.121136,41.0366099 C129.797938,38.6167254 132.038173,36.8932886 134.679462,35.6583553 C135.317801,35.3598777 135.673261,35.4612564 135.926829,36.0888609 C135.84029,36.2185312 135.757008,36.3505592 135.668143,36.4778719 C134.019256,38.8293848 132.487615,41.2888776 130.052436,42.9335692 C129.413167,43.3650178 128.581279,43.896902 127.944801,43.3480428 C127.176189,42.6841305 127.63075,41.7457888 128.121136,41.0366099 M170.546009,56.6607081 C169.739712,56.4390896 169.020417,56.7899069 168.292283,57.0346302 C163.086936,58.782115 157.721541,59.4889363 152.273328,59.1857434 C148.883897,58.997132 145.492606,58.6698911 142.111085,58.2973836 C133.880608,57.3915773 125.689679,56.1839927 117.485257,55.0796729 C116.214162,54.908508 116.030849,54.4879046 116.447258,53.231281 C117.828154,49.0653263 121.453472,47.2207067 124.582822,44.8526903 C125.123921,44.442932 125.772495,44.4995155 126.338253,44.8621209 C127.747065,45.7650981 129.146107,45.5137734 130.548405,44.8748522 C131.181626,44.5862767 131.721329,44.2948721 132.480636,44.7772458 C135.211256,46.5086986 136.68567,46.3941171 139.007325,44.2467761 C140.662261,42.7152515 142.2716,41.1285579 143.658545,39.3240182 C145.009199,37.5652168 145.331625,37.3247372 146.811158,36.5438859 C145.760597,38.9515106 144.015865,40.7301163 142.323709,42.557761 C141.576034,43.3645463 140.705064,44.3731458 141.723988,45.4128663 C142.784318,46.4950243 143.860003,45.6448583 144.797971,44.9215335 C145.230664,44.5876913 145.537736,44.1237072 145.875981,43.6946163 C147.181971,42.0419087 148.478655,40.3816567 149.802789,38.7435665 C150.55186,37.817013 151.384213,36.9857081 152.81117,36.6169728 C152.438496,38.2866554 151.425622,39.2603618 151.069231,40.5490493 C150.340166,43.1815932 151.765262,45.1257054 154.456335,45.104015 C155.076994,45.0992998 155.699513,45.0054656 156.291326,44.8314716 C161.016522,43.4437631 165.490943,41.1907997 170.452957,40.616478 C170.992661,40.2694329 170.775384,39.9124858 170.46645,39.5545956 C168.761732,39.5777006 167.042125,39.5569533 165.397891,40.0652611 C162.37369,41.0003022 159.371823,42.0098448 156.359255,42.9821366 C155.382205,43.2975892 154.283257,43.6592516 153.588157,42.6454653 C152.920506,41.6731734 153.570011,40.6824919 154.097618,39.8214808 C154.831801,38.6256845 155.714402,37.5180639 156.383913,36.288789 C156.784039,35.5550906 157.063195,34.6275939 156.400663,33.8495718 C155.812107,33.159254 154.969518,33.3865308 154.21533,33.455374 C152.486883,33.6138076 151.319077,34.9887847 149.790692,35.7908548 C149.726486,34.6747468 150.524409,33.4841372 149.242149,32.9178315 C148.212059,32.463278 147.262461,33.0427865 146.498036,33.7312182 C145.632649,34.5111264 144.837052,35.3759097 144.04983,36.23975 C141.896135,38.601165 139.868524,41.089421 137.434742,43.1702765 C136.626582,43.8610658 135.52112,44.8828682 134.588736,44.0591078 C133.48374,43.0835153 134.486844,41.8160466 135.169848,40.9507917 C136.422797,39.3626835 137.90419,37.9622438 139.215763,36.4184593 C139.897836,35.6159177 140.922342,34.7534921 140.322619,33.5534519 C139.720571,32.3486965 138.414117,32.7278055 137.395659,32.7942909 C133.026853,33.0800372 129.885873,35.5154821 127.490241,39.0005496 C125.319331,42.1579047 122.260236,44.1213495 119.026668,46.0013339 C119.269535,44.8809821 119.594752,43.8379609 120.192148,42.9910957 C121.892214,40.5825279 122.41005,37.0111707 126.218681,36.6004693 C126.689991,36.5500158 126.747218,35.9049647 126.817473,35.4268348 C127.136642,33.2398855 125.598022,31.8535915 123.162378,32.1869622 C120.260076,32.5839892 118.018446,34.215478 115.967573,36.1958979 C113.727339,38.3587993 111.839773,40.9008096 109.282696,42.7180806 C108.337749,43.3895373 107.089453,44.8182688 106.156603,43.8209859 C105.218636,42.8180447 106.707473,41.6137608 107.390011,40.6626878 C108.661571,38.8892689 110.182977,37.2926733 111.383817,35.4758738 C112.543714,33.721316 111.941665,32.5887046 109.93918,32.5575836 C108.689022,32.5387225 107.681265,32.2746665 106.905209,31.2184426 C106.539979,30.7209799 106.017025,30.2551097 105.318202,30.5795214 C104.599373,30.9138352 104.462586,31.6182987 104.38954,32.3463388 C104.031288,35.9167529 100.22731,39.9502081 96.4447336,40.6461842 C97.7697985,38.7082019 99.3977486,37.066811 100.024456,34.8506269 C100.452962,33.3346627 100.500419,31.3617872 98.6658922,31.2528641 C96.4796282,31.1231938 93.8453174,31.3334956 92.2671502,33.0640053 C90.4614701,35.0430106 88.5808829,37.0380478 87.3498008,39.5611971 C86.4886017,41.3265999 84.8629779,42.5605901 82.9809949,43.2480788 C82.3533571,43.4772416 81.5479894,43.7016891 80.9966544,43.1212375 C80.4913804,42.5893533 80.9263999,41.9358148 81.1083172,41.3591353 C81.7489823,39.3282619 82.7790714,37.4770409 83.922219,35.7158818 C88.4324645,28.7693233 92.5281619,21.6002034 95.7635907,13.9421084 C96.320974,12.6223 97.3119812,11.0695565 95.7505634,10.202887 C94.1854235,9.33338841 93.5382447,11.2515665 92.9655078,12.2714827 C88.97589,19.380247 83.6472495,25.3535706 77.8142654,30.9095914 C76.7367197,31.9356375 75.9094846,33.2898674 74.0749584,34.0834499 C74.3327133,33.3205168 74.4453065,32.8989703 74.613266,32.5019432 C77.363427,26.0250273 79.2714646,19.2468044 81.5489199,12.6015527 C82.0872275,11.0304196 82.6232088,8.99058715 80.6923734,8.27197766 C78.6005575,7.49348404 78.2897627,9.80350236 77.7928634,11.1204816 C74.9705868,18.5937375 70.8483695,25.3007594 65.9277634,31.4777833 C60.2013242,38.6657643 54.0966275,45.4666205 44.4629219,47.2796477 C43.6235901,47.4376098 42.9964175,47.97751 43.0055205,48.8597399 C43.0154932,49.8673963 43.7138508,50.3917361 44.6727548,50.4756682 C46.0736574,50.5982656 47.4396653,50.5119759 48.7428629,49.8466491 C51.5232659,48.4273482 54.0924402,46.7024968 56.4596909,44.6551199 C62.7076882,39.2514028 67.52268,32.630199 72.1092283,25.8123679 C73.0113704,24.4699261 73.9256094,23.1359719 74.8342652,21.7977739 C75.0980685,22.6220057 75.0226962,23.2411227 74.8296126,23.8196882 C72.581934,30.5672617 70.384969,37.3351108 66.3306799,43.2810857 C65.8589047,43.9728181 64.8613839,44.8045944 65.7956291,45.7462369 C66.6945144,46.6515717 67.826961,46.3233879 68.7616715,45.7023848 C69.3925661,45.2836674 70.0532376,44.7348082 70.3998574,44.0807981 C73.4556952,38.3149472 78.3074426,34.0707187 82.5217817,29.2898908 C84.6433744,26.8827376 86.8487142,24.551029 89.016833,22.1853704 C89.1833966,22.2975941 89.349495,22.4098179 89.5160586,22.5220417 C89.1196558,23.3189249 88.728836,24.1186374 88.3263848,24.9122199 C86.2713246,28.9631216 83.65702,32.6698074 81.3404827,36.5589749 C80.3866966,38.1588712 79.3570728,39.7630113 79.2412226,41.7184402 C79.1062968,43.9945084 80.0149526,44.9102168 82.2314585,44.8394875 C83.6807483,44.7928062 84.9127608,44.1769899 86.1224409,43.4555513 C86.6044519,43.1683904 86.9473496,42.7020487 87.5712653,43.559759 C89.3159961,45.9584248 90.9071907,46.045186 93.1460293,44.1406822 C93.9644243,43.4442346 94.4994751,42.252682 95.6533237,42.138572 C100.131931,41.6953352 103.041677,38.7954347 105.745777,35.6140316 C106.719104,34.4682172 107.703598,34.1060833 109.234308,34.693608 C108.659245,35.4702154 108.180956,36.1628909 107.655211,36.8173725 C106.291064,38.5158183 104.728715,40.0662041 103.907064,42.1579047 C103.51764,43.1509438 103.275238,44.1534135 104.075954,45.021026 C104.799901,45.8065925 105.719257,45.615152 106.677231,45.4430441 C108.811851,45.0582768 110.268585,43.4164144 112.121722,42.4511955 C112.805656,45.5166026 113.499826,45.7830161 117.266584,44.5410099 C117.516429,44.838073 117.31404,45.1082588 117.240064,45.4024927 C116.323964,49.0304332 113.185775,50.5364954 110.638468,52.65413 C108.85419,54.1370873 107.049905,54.29835 104.85294,53.9970433 C95.5709724,52.7229732 86.2810951,51.3711009 76.8772287,51.6200679 C70.6385366,51.7855745 64.5268609,52.5843438 59.306161,56.5513134 C58.5477848,56.9384384 57.7196192,57.2562486 57.4297612,58.4407283 C58.5905888,58.3087003 59.2238098,57.6952417 59.8579612,57.0822545 C64.5477976,54.5784381 69.5628519,53.6221781 74.835661,53.7150692 C82.3426561,53.8470973 89.8091734,54.503465 97.2645244,55.3262823 C99.8895301,55.6162723 102.504765,55.9967958 105.388456,56.3702465 C103.847045,58.1314056 102.250267,59.3229582 101.556562,61.2307627 C100.762361,63.4153544 101.497009,64.5201458 103.774929,64.5805015 C107.923667,64.6898961 110.092251,61.7037058 112.272931,58.8707624 C113.086674,57.8135953 113.815274,57.3736593 115.137547,57.5717012 C123.932851,58.8896235 132.751884,60.0684448 141.631865,60.5701512 C151.131576,61.1076937 160.657806,61.5990265 169.872776,58.3124725 C170.222188,57.8140669 171.405348,57.6645923 170.546009,56.6607081" id="Fill-5"></path>
            <path d="M20.9075814,30.7258588 C19.9454675,32.5792185 17.0353758,32.5523582 15.7863974,30.8898479 C13.5059175,27.8527506 13.5990554,25.3980973 16.2614004,22.8086714 C20.0097326,19.1622698 24.8026056,17.4752553 29.6206259,15.7519558 C26.8483782,20.9086597 23.5601469,25.6191056 20.9075814,30.7258588 M59.9775063,5.81459231 C55.5567189,1.97781243 50.1556559,0.596156991 44.4952039,0.256397928 C36.3065254,-0.235569426 28.5486094,1.0405298 22.1402606,6.79287222 C19.8257854,8.87053894 18.0086662,11.3379154 17.1289793,14.7166568 C18.2177607,14.3500374 18.3770263,13.6087877 18.7300187,13.0480203 C19.9436048,11.120677 21.3183192,9.34459944 23.0809528,7.88142067 C31.5364711,0.860047525 46.7673014,0.165449941 55.845912,6.40787478 C62.3581094,10.8850604 63.9461095,18.6189381 59.7525784,25.3797193 C57.715654,28.6637427 54.8213958,30.9883356 51.518728,32.8143638 C46.6639184,35.4989788 41.4663615,36.916448 35.3844608,37.1421686 C37.216482,34.4043043 38.7276434,32.0636895 40.3212318,29.7819788 C43.7617434,24.8552368 47.2804909,19.9831579 50.6837474,15.030498 C51.4810073,13.8698509 52.6997158,12.2756693 50.9650237,11.1399976 C49.2708464,10.0307148 48.068437,11.4915375 47.2409073,12.8689518 C45.8759723,15.1412378 44.6526068,17.4997594 43.3291182,19.7984345 C42.6738935,20.9374048 42.3171756,22.2907863 41.1971931,23.1135593 C36.1658872,26.8108542 30.3727139,28.6265153 24.0426009,30.3785599 C25.5584192,27.5558737 26.7785248,25.1252534 28.1420627,22.7794551 C30.4830823,18.7522969 31.9718906,14.0201742 36.9934169,12.2007432 C38.2344786,11.7511869 38.8748012,10.2578492 37.973227,9.06468698 C37.1456973,7.96954126 35.8506157,8.46480724 34.8130602,9.14102674 C34.4274696,9.39266522 33.9855306,9.67681872 33.775039,10.061345 C32.1842448,12.9655545 29.3160652,14.0093359 26.5717588,15.279309 C22.7079357,17.0681099 18.7002147,18.5892503 15.1628396,21.0203419 C11.0787456,23.8284199 10.5031537,27.7208053 13.4588829,31.7328838 C13.7215316,32.0900786 13.9841803,32.4472732 14.383276,32.9901338 C9.51589263,34.5824304 4.95912406,36.4998779 0.494561907,38.6406898 C0.0167648104,39.1811943 0.0228187698,39.841863 0.0414463369,40.5053592 C0.685960159,40.8719786 1.25130682,40.5246797 1.79569747,40.2622029 C4.52510174,38.942279 7.38629605,37.9489196 10.1725144,36.7703657 C11.5318611,36.1954613 12.9387082,35.7525022 14.3492806,35.3288637 C15.1255845,35.0956033 15.9461288,35.0423539 16.4821371,35.7661679 C17.0079002,36.475845 16.4877253,37.1153083 16.0769875,37.6732483 C13.6707715,40.9426635 11.1867854,44.1069938 7.91019638,46.6059429 C5.6413587,48.3363109 2.93989578,49.0662508 0.547650473,50.4667557 C-0.287795912,51.278219 0.0973290384,52.3163456 0.0381865126,53.271535 C0.798656941,53.1551405 1.57822063,53.1113157 2.31680366,52.911513 C9.32635717,51.0096162 14.0554308,46.09277 18.010529,40.3545646 C19.6534804,37.9715389 21.0528764,35.8924584 24.333191,37.0842069 C24.3937305,37.1058836 24.5343687,36.9027822 24.7103992,36.7359657 C24.2512296,35.6620254 23.1577915,35.9480639 22.376365,35.6139597 C21.9307004,35.4231103 21.1325093,35.3689185 21.6289339,34.5616962 C22.2203592,33.5984957 22.4238653,32.280928 23.7282607,31.9091251 C29.113956,30.3733764 34.4232784,28.6161482 40.0949068,25.8132537 C38.229356,28.9936059 36.7377536,31.5349659 35.2480139,34.078211 C34.3171012,35.667209 33.5454543,37.4503551 30.8193098,37.3382015 C33.2227316,37.9899169 32.2401275,39.0864764 31.6687269,40.058159 C30.9967374,41.2013705 30.3014635,42.3370423 29.5349391,43.4171085 C27.2665671,46.6139538 24.8165763,49.6298457 21.4352071,51.7381425 C20.8544927,52.1005208 19.9077467,52.5693977 20.4321127,53.5519188 C20.8693948,54.3695082 21.7881996,54.2488725 22.5398219,54.1503848 C23.7650501,53.991108 24.6000308,53.1226254 25.3949623,52.2588551 C27.9469389,49.4861196 30.1338154,46.3877619 31.7297321,43.013733 C33.4118014,39.4592217 35.8953218,38.3994185 39.6408599,38.0733252 C47.2539466,37.4112427 54.3375447,34.8906168 60.0729726,29.4846308 C67.1402715,22.8223372 67.1020851,11.998113 59.9775063,5.81459231" id="Fill-8"></path>
        </g>
    </g>
</svg>
