<?xml version="1.0" encoding="UTF-8"?>
<svg width="100px" height="21px" viewBox="0 0 100 21" version="1.1" xmlns="http://www.w3.org/2000/svg" xmlns:xlink="http://www.w3.org/1999/xlink">
    <defs>
        <polygon id="path-1" points="0.06 0.661 10.087 0.661 10.087 15.308 0.06 15.308"></polygon>
    </defs>
    <g id="💄-layout" stroke="none" stroke-width="1" fill="none" fill-rule="evenodd">
        <g id="JPM_logo_2016_DIGITAL_B_RGB_HEX">
            <g id="Group-3">
                <mask id="mask-2" fill="white">
                    <use xlink:href="#path-1"></use>
                </mask>
                <g id="Clip-2"></g>
                <path d="M10.087,0.661 L4.205,0.661 L4.205,1.163 L6.079,1.163 L6.079,10.921 C6.079,13.855 5.265,14.68 3.453,14.68 C2.311,14.68 2.124,13.813 2.124,13.364 C2.124,12.299 2.064,11.646 1.091,11.646 C0.115,11.646 0,12.634 0,12.933 C0,14.278 0.598,15.308 3.268,15.308 C6.452,15.308 8.152,14.231 8.152,10.662 L8.152,1.16 L10.087,1.163 L10.087,0.661" id="Fill-1" fill="#FFFFFF" mask="url(#mask-2)"></path>
            </g>
            <path d="M10.877,13.042 C10.55,13.042 10.279,13.146 10.058,13.37 C9.831,13.598 9.719,13.864 9.719,14.189 C9.719,14.515 9.832,14.777 10.061,14.993 C10.289,15.217 10.56,15.324 10.877,15.324 C11.2,15.324 11.471,15.217 11.704,14.993 C11.929,14.777 12.042,14.515 12.042,14.189 C12.042,13.861 11.929,13.592 11.704,13.37 C11.48,13.146 11.21,13.042 10.877,13.042" id="Fill-4" fill="#FFFFFF"></path>
            <path d="M23.938,13.042 C23.614,13.042 23.342,13.146 23.119,13.37 C22.894,13.598 22.787,13.864 22.787,14.189 C22.787,14.515 22.894,14.777 23.119,14.993 C23.356,15.217 23.621,15.324 23.938,15.324 C24.265,15.324 24.539,15.217 24.769,14.993 C24.996,14.777 25.108,14.515 25.108,14.189 C25.108,13.861 24.996,13.592 24.771,13.37 C24.542,13.146 24.267,13.042 23.938,13.042" id="Fill-5" fill="#FFFFFF"></path>
            <path d="M19.053,8.395 L17.877,8.395 L17.877,1.227 L18.942,1.213 C22.379,1.213 23.128,2.626 23.128,4.915 C23.128,7.22 21.778,8.395 19.053,8.395 M19.84,0.661 L14.081,0.661 L14.081,1.163 L15.773,1.163 L15.773,12.294 C15.773,13.171 15.719,13.398 15.622,13.65 C15.517,13.934 15.28,14.158 14.93,14.302 C14.669,14.413 14.274,14.47 13.75,14.486 L13.75,14.946 L19.948,14.946 L19.948,14.488 C19.423,14.475 19.022,14.416 18.76,14.323 C18.391,14.178 18.149,13.962 18.032,13.671 C17.93,13.42 17.877,13.199 17.877,12.76 L17.877,8.947 L19.412,8.942 C23.866,8.942 25.117,7.184 25.117,4.784 C25.117,2.36 24.35,0.661 19.84,0.661" id="Fill-6" fill="#FFFFFF"></path>
            <path d="M43.484,13.614 C43.403,13.356 43.363,13.042 43.363,12.642 L43.363,1.163 C43.363,1.163 44.874,1.154 44.856,1.148 C44.839,1.148 44.856,0.694 44.856,0.694 L41.201,0.694 C41.149,0.826 36.835,11.576 36.835,11.576 C36.816,11.615 36.777,11.641 36.737,11.641 C36.688,11.641 36.648,11.615 36.633,11.576 C36.633,11.576 32.035,0.826 31.982,0.694 L27.927,0.694 L27.927,1.154 L29.687,1.154 L29.687,12.21 C29.687,12.21 29.649,13.213 29.649,13.216 C29.621,13.482 29.537,13.718 29.408,13.909 C29.271,14.113 29.048,14.271 28.757,14.371 C28.564,14.436 28.281,14.477 27.927,14.486 L27.927,14.946 L31.951,14.946 L31.951,14.491 C31.61,14.477 31.461,14.444 31.261,14.376 C30.965,14.278 30.744,14.133 30.596,13.923 C30.466,13.726 30.38,13.493 30.352,13.216 L30.306,12.21 L30.306,2.659 L30.543,2.659 C30.543,2.659 35.749,14.811 35.803,14.946 L36.238,14.946 L41.164,2.794 L41.289,2.794 L41.289,12.642 C41.289,13.063 41.246,13.388 41.164,13.64 C41.068,13.934 40.857,14.158 40.553,14.307 C40.328,14.407 39.982,14.467 39.529,14.486 L39.529,14.946 L45.146,14.946 L45.146,14.486 C44.697,14.464 44.35,14.402 44.115,14.298 C43.788,14.138 43.576,13.909 43.484,13.614" id="Fill-7" fill="#FFFFFF"></path>
            <path d="M51.002,14.732 C48.749,14.732 48.4,13.605 48.4,9.998 C48.4,7.209 48.574,5.115 51.002,5.115 C53.624,5.115 53.637,7.282 53.637,9.822 C53.637,13.475 53.013,14.732 51.002,14.732 M51.041,4.481 C48.044,4.481 46.163,6.469 46.163,9.942 C46.163,15.027 50.12,15.363 50.974,15.363 C52.666,15.363 55.872,14.309 55.872,9.847 C55.872,6.371 53.822,4.481 51.041,4.481" id="Fill-8" fill="#FFFFFF"></path>
            <path d="M63.716,4.638 C61.924,4.638 61.364,5.698 60.869,6.777 C60.869,6.777 60.74,6.767 60.728,6.771 C60.713,6.777 60.471,5.202 60.379,4.739 C59.679,4.739 56.908,4.731 56.908,4.731 L56.908,5.264 L58.786,5.264 C58.786,5.264 58.775,6.858 58.775,7.433 L58.775,12.316 C58.775,13.017 58.698,13.505 58.547,13.799 C58.354,14.147 57.924,14.323 57.212,14.323 L56.908,14.323 L56.908,14.946 L62.724,14.946 L62.724,14.323 L62.411,14.323 C61.647,14.323 61.317,14.158 61.113,13.827 C60.929,13.535 60.846,13.042 60.846,12.316 L60.846,8.655 C60.846,7.419 61.774,6.015 62.891,6.015 C64.055,6.015 64.026,7.809 65.347,7.086 C66.064,6.693 65.944,4.638 63.716,4.638" id="Fill-9" fill="#FFFFFF"></path>
            <path d="M83.838,12.82 C83.838,12.857 83.834,12.88 83.803,12.902 L83.76,12.941 C82.763,13.847 82.002,14.169 81.445,14.169 C80.021,14.169 79.806,12.98 79.806,12.387 C79.806,10.486 82.412,9.535 83.838,9.535 L83.838,12.82 Z M86.886,13.9 C86.264,13.9 86.065,13.556 86.02,12.977 L85.983,11.672 L85.983,7.394 C85.983,6.469 85.834,5.85 85.289,5.306 C84.754,4.761 83.717,4.481 82.217,4.481 C80.777,4.481 79.708,4.748 79.028,5.269 C78.363,5.773 78.106,6.242 78.106,6.912 C78.106,7.223 78.188,7.441 78.363,7.587 C78.539,7.745 78.745,7.814 78.997,7.814 C79.575,7.814 79.9,7.52 80.021,6.76 C80.109,6.197 80.232,5.874 80.51,5.58 C80.807,5.269 81.271,5.115 81.897,5.115 C82.626,5.115 83.144,5.311 83.432,5.703 C83.698,6.071 83.838,6.572 83.838,7.195 L83.838,8.908 C81.975,9.076 77.574,9.429 77.771,12.778 C77.844,14.091 79,15.243 80.495,15.243 C82.146,15.243 83.192,14.302 83.901,13.55 C84.016,14.263 84.678,15.114 85.882,15.114 C87.235,15.114 88.045,14.449 88.139,12.79 L87.791,12.79 C87.7,13.514 87.253,13.9 86.886,13.9 L86.886,13.9 Z" id="Fill-10" fill="#FFFFFF"></path>
            <path d="M98.811,13.827 C98.611,13.535 98.447,13.042 98.447,12.312 L98.475,7.683 C98.475,7.016 98.385,6.441 98.133,5.973 C97.88,5.516 97.522,5.168 97.079,4.941 C96.629,4.714 96.111,4.602 95.543,4.602 C93.499,4.602 92.68,5.85 92.232,6.584 L92.046,6.575 L91.682,4.719 L88.52,4.714 L88.52,5.247 C89.113,5.272 90.104,5.283 90.104,5.283 L90.104,12.306 C90.104,12.852 90.06,13.244 89.98,13.505 C89.896,13.815 89.694,14.032 89.396,14.158 C89.204,14.239 88.903,14.284 88.52,14.302 L88.52,14.946 L93.547,14.946 L93.547,14.298 C93.042,14.256 92.699,14.119 92.519,13.861 C92.322,13.587 92.232,13.11 92.232,12.417 L92.232,9.721 C92.232,8.591 92.227,7.5 92.611,6.828 C93.027,6.094 93.787,5.687 94.64,5.687 C95.404,5.687 95.807,5.934 96.059,6.418 C96.265,6.813 96.399,7.991 96.399,8.802 L96.374,12.142 C96.374,12.7 96.444,13.11 96.399,13.376 C96.342,13.682 96.203,13.923 95.961,14.082 C95.785,14.203 95.51,14.265 95.155,14.292 L95.155,14.946 L100,14.946 L100,14.302 C99.387,14.263 98.987,14.113 98.811,13.827" id="Fill-11" fill="#FFFFFF"></path>
            <path d="M71.048,11.512 C69.725,11.512 68.968,11.033 68.968,8.341 C68.968,6.441 69.631,5.028 71.048,5.028 C72.697,5.028 73.179,6.315 73.179,8.302 C73.179,11.139 72.285,11.512 71.048,11.512 M76.048,4.07 C75.749,4.165 75.55,4.431 75.444,4.882 C75.366,5.297 75.207,5.538 74.997,5.605 C74.787,5.667 74.553,5.65 74.272,5.555 C73.753,5.07 72.752,4.481 70.993,4.481 C68.162,4.481 66.912,6.5 66.912,8.341 C66.912,10.494 67.741,11.537 69.563,11.921 C69.675,11.944 69.675,12.067 69.577,12.089 C68.024,12.403 66.646,12.857 66.646,14.334 C66.646,15.226 67.158,15.714 67.812,15.98 C68.534,16.272 69.548,16.426 70.821,16.448 C71.936,16.46 72.726,16.499 73.24,16.56 C73.795,16.625 74.235,16.782 74.56,17.02 C74.895,17.278 75.072,17.659 75.072,18.161 C75.072,18.842 74.707,19.392 73.978,19.801 C73.3,20.177 72.373,20.376 71.221,20.376 C70.233,20.376 69.424,20.269 68.694,19.815 C68.153,19.478 68.048,18.82 68.162,18.347 C68.263,17.867 68.09,17.362 67.535,17.267 C67.228,17.217 66.845,17.382 66.666,17.659 C66.499,17.917 66.441,18.226 66.441,18.593 C66.441,19.806 67.38,20.376 68.096,20.586 C69.191,20.919 69.915,21 70.922,21 C72.254,21 73.338,20.796 74.111,20.403 C74.885,20.015 75.425,19.535 75.714,18.985 C76.018,18.431 76.162,17.867 76.162,17.322 C76.162,16.589 76.001,15.988 75.689,15.549 C74.677,14.158 73.24,14.334 70.009,14.181 C68.454,14.181 68.155,13.9 68.155,13.424 C68.155,12.723 68.73,12.445 70.979,12.1 C73.195,11.756 75.258,10.942 75.258,8.241 C75.258,7.461 75.076,6.794 74.856,6.326 C75.315,6.427 75.742,6.427 76.131,6.301 C76.579,6.161 76.868,5.936 77.036,5.625 C77.204,5.308 77.242,5.014 77.15,4.722 C76.96,4.117 76.598,3.901 76.048,4.07" id="Fill-12" fill="#FFFFFF"></path>
        </g>
    </g>
</svg>
