<?xml version="1.0" encoding="UTF-8"?>
<svg width="526px" height="488px" viewBox="0 0 526 488" version="1.1" xmlns="http://www.w3.org/2000/svg" xmlns:xlink="http://www.w3.org/1999/xlink">
    <defs>
        <path d="M27.8648889,1.38947368 L2.05866667,26.7386842 C0.0746666667,28.6874211 0.0746666667,31.8467368 2.05866667,33.7937368 L2.05866667,33.7937368 L27.8648889,59.1464211 C28.32,59.5927895 28.88,59.7942632 29.4328889,59.7942632 L29.4328889,59.7942632 C30.5813333,59.7942632 31.6817778,58.9171579 31.6817778,57.5936842 L31.6817778,57.5936842 L31.6817778,2.94394737 C31.6817778,1.617 30.5813333,0.739894737 29.4328889,0.739894737 L29.4328889,0.739894737 C28.88,0.739894737 28.32,0.939631579 27.8648889,1.38947368 L27.8648889,1.38947368 Z" id="path-1"></path>
        <path d="M0,2.94394737 L0,57.5919474 C0,58.9171579 1.09339031,59.7942632 2.23623932,59.7942632 L2.23623932,59.7942632 C2.78205128,59.7942632 3.34022792,59.5927895 3.79242165,59.1464211 L3.79242165,59.1464211 L29.4349858,33.7937368 C31.4045014,31.8467368 31.4045014,28.6874211 29.4349858,26.7386842 L29.4349858,26.7386842 L3.79242165,1.38947368 C3.34022792,0.939631579 2.78205128,0.739894737 2.23623932,0.739894737 L2.23623932,0.739894737 C1.09339031,0.739894737 0,1.617 0,2.94394737 L0,2.94394737 Z" id="path-3"></path>
        <path d="M26.637,2.16033684 L1.28605263,27.8325053 C0.837947368,28.2816842 0.638210526,28.8387368 0.638210526,29.3887158 L0.638210526,29.3887158 C0.638210526,30.5328842 1.51531579,31.6275368 2.83878947,31.6275368 L2.83878947,31.6275368 L57.4867895,31.6275368 C58.8137368,31.6275368 59.6908421,30.5328842 59.6908421,29.3887158 L59.6908421,29.3887158 C59.6908421,28.8387368 59.4911053,28.2816842 59.043,27.8325053 L59.043,27.8325053 L33.6920526,2.16033684 C32.7194211,1.17355789 31.4411053,0.680168421 30.1645263,0.680168421 L30.1645263,0.680168421 C28.8879474,0.680168421 27.6113684,1.17355789 26.637,2.16033684 L26.637,2.16033684 Z" id="path-5"></path>
        <path d="M26.637,1.58246424 L1.28605263,27.0883104 C0.837947368,27.5381242 0.638210526,28.0916059 0.638210526,28.6363023 L0.638210526,28.6363023 C0.638210526,29.7713792 1.51531579,30.8590148 2.83878947,30.8590148 L2.83878947,30.8590148 L57.4867895,30.8590148 C58.8137368,30.8590148 59.6908421,29.7713792 59.6908421,28.6363023 L59.6908421,28.6363023 C59.6908421,28.0916059 59.4911053,27.5381242 59.043,27.0883104 L59.043,27.0883104 L33.6920526,1.58246424 C32.7194211,0.602010796 31.4411053,0.111784076 30.1645263,0.111784076 L30.1645263,0.111784076 C28.8879474,0.111784076 27.6113684,0.602010796 26.637,1.58246424 L26.637,1.58246424 Z" id="path-7"></path>
        <path d="M27.1280912,1.29742105 L1.48552707,26.6466316 C-0.483988604,28.5953684 -0.483988604,31.7564211 1.48552707,33.7034211 L1.48552707,33.7034211 L27.1280912,59.0543684 C27.5785185,59.5024737 28.1366952,59.7022105 28.6860399,59.7022105 L28.6860399,59.7022105 C29.8271225,59.7022105 30.9205128,58.8251053 30.9205128,57.5016316 L30.9205128,57.5016316 L30.9205128,2.85363158 C30.9205128,1.52668421 29.8271225,0.649578947 28.6860399,0.649578947 L28.6860399,0.649578947 C28.1366952,0.649578947 27.5785185,0.849315789 27.1280912,1.29742105 L27.1280912,1.29742105 Z" id="path-9"></path>
        <path d="M0.4096,2.94394737 L0.4096,57.5919474 C0.4096,58.9171579 1.50425263,59.7942632 2.64665263,59.7942632 L2.64665263,59.7942632 C3.19486316,59.7942632 3.75368421,59.5927895 4.2064,59.1464211 L4.2064,59.1464211 L29.8768,33.7937368 C31.8485895,31.8467368 31.8485895,28.6874211 29.8768,26.7386842 L29.8768,26.7386842 L4.2064,1.38947368 C3.75368421,0.939631579 3.19486316,0.739894737 2.64665263,0.739894737 L2.64665263,0.739894737 C1.50425263,0.739894737 0.4096,1.617 0.4096,2.94394737 L0.4096,2.94394737 Z" id="path-11"></path>
        <path d="M27.7246316,1.38947368 L2.05246316,26.7386842 C0.0806736842,28.6874211 0.0806736842,31.8467368 2.05246316,33.7937368 L2.05246316,33.7937368 L27.7246316,59.1464211 C28.1773474,59.5927895 28.7344,59.7942632 29.2826105,59.7942632 L29.2826105,59.7942632 C30.4267789,59.7942632 31.5214316,58.9171579 31.5214316,57.5936842 L31.5214316,57.5936842 L31.5214316,2.94394737 C31.5214316,1.617 30.4267789,0.739894737 29.2826105,0.739894737 L29.2826105,0.739894737 C28.7344,0.739894737 28.1773474,0.939631579 27.7246316,1.38947368 L27.7246316,1.38947368 Z" id="path-13"></path>
        <path d="M0.00883190883,2.94394737 L0.00883190883,57.5902105 C0.00883190883,58.9171579 1.1039886,59.7942632 2.24507123,59.7942632 L2.24507123,59.7942632 C2.79441595,59.7942632 3.35082621,59.5945263 3.80301994,59.1446842 L3.80301994,59.1446842 L29.445584,33.7937368 C31.4150997,31.8467368 31.4150997,28.6874211 29.445584,26.7386842 L29.445584,26.7386842 L3.80301994,1.38947368 C3.35082621,0.939631579 2.79441595,0.741631579 2.24507123,0.741631579 L2.24507123,0.741631579 C1.1039886,0.741631579 0.00883190883,1.61873684 0.00883190883,2.94394737 L0.00883190883,2.94394737 Z" id="path-15"></path>
        <path d="M0.405333333,2.94394737 L0.405333333,57.5919474 C0.405333333,58.9171579 1.50577778,59.7942632 2.65422222,59.7942632 L2.65422222,59.7942632 C3.20711111,59.7942632 3.76711111,59.5927895 4.22222222,59.1464211 L4.22222222,59.1464211 L30.0284444,33.7937368 C32.0106667,31.8467368 32.0106667,28.6874211 30.0284444,26.7386842 L30.0284444,26.7386842 L4.22222222,1.38947368 C3.76711111,0.939631579 3.20711111,0.739894737 2.65422222,0.739894737 L2.65422222,0.739894737 C1.50577778,0.739894737 0.405333333,1.617 0.405333333,2.94394737 L0.405333333,2.94394737 Z" id="path-17"></path>
        <path d="M2.241056,0.680168421 C0.918826667,0.680168421 0.04484,1.77482105 0.04484,2.91722105 L0.04484,2.91722105 C0.04484,3.4672 0.243866667,4.02602105 0.690378667,4.47696842 L0.690378667,4.47696842 L25.9511893,30.1491368 C27.8929973,32.1226947 31.04108,32.1226947 32.9811573,30.1491368 L32.9811573,30.1491368 L58.2402373,4.47696842 C58.6902107,4.02602105 58.8875067,3.4672 58.8875067,2.91722105 L58.8875067,2.91722105 C58.8875067,1.77482105 58.01352,0.680168421 56.694752,0.680168421 L56.694752,0.680168421 L2.241056,0.680168421 Z" id="path-19"></path>
        <path d="M2.60605263,0.397221053 C1.27910526,0.397221053 0.402,1.49187368 0.402,2.63427368 L0.402,2.63427368 C0.402,3.18425263 0.601736842,3.74130526 1.04984211,4.19402105 L1.04984211,4.19402105 L26.4025263,29.8644211 C28.3477895,31.8362105 31.5088421,31.8362105 33.4541053,29.8644211 L33.4541053,29.8644211 L58.8067895,4.19402105 C59.2548947,3.74130526 59.4546316,3.18425263 59.4546316,2.63427368 L59.4546316,2.63427368 C59.4546316,1.49187368 58.5775263,0.397221053 57.2540526,0.397221053 L57.2540526,0.397221053 L2.60605263,0.397221053 Z" id="path-21"></path>
        <path d="M27.7670737,0.647264706 L2.09490526,25.9756176 C0.123115789,27.9208824 0.123115789,31.0791176 2.09490526,33.0243824 L2.09490526,33.0243824 L27.7670737,58.3527353 C28.2197895,58.7987059 28.7786105,59 29.3250526,59 L29.3250526,59 C30.4692211,59 31.5638737,58.1236765 31.5638737,56.7996471 L31.5638737,56.7996471 L31.5638737,2.20035294 C31.5638737,0.876323529 30.4692211,0 29.3250526,0 L29.3250526,0 C28.7786105,0 28.2197895,0.199558824 27.7670737,0.647264706 L27.7670737,0.647264706 Z" id="path-23"></path>
        <path d="M2.475,0.236537112 C1.14978947,0.236537112 0.272684211,1.32417274 0.272684211,2.46100675 L0.272684211,2.46100675 C0.272684211,3.0057031 0.470684211,3.55918489 0.920526316,4.01075574 L0.920526316,4.01075574 L26.2714737,29.5166019 C28.2184737,31.4757517 31.3795263,31.4757517 33.3247895,29.5166019 L33.3247895,29.5166019 L58.6774737,4.01075574 C59.1255789,3.55918489 59.3253158,3.0057031 59.3253158,2.46100675 L59.3253158,2.46100675 C59.3253158,1.32417274 58.4482105,0.236537112 57.1247368,0.236537112 L57.1247368,0.236537112 L2.475,0.236537112 Z" id="path-25"></path>
        <path d="M27.1462942,1.38947368 L1.63869096,26.7386842 C-0.320458839,28.6874211 -0.320458839,31.8467368 1.63869096,33.7937368 L1.63869096,33.7937368 L27.1462942,59.1464211 C27.596108,59.5927895 28.1495897,59.7942632 28.6942861,59.7942632 L28.6942861,59.7942632 C29.8311201,59.7942632 30.9169987,58.9171579 30.9169987,57.5936842 L30.9169987,57.5936842 L30.9169987,2.94394737 C30.9169987,1.617 29.8311201,0.739894737 28.6942861,0.739894737 L28.6942861,0.739894737 C28.1495897,0.739894737 27.596108,0.939631579 27.1462942,1.38947368 L27.1462942,1.38947368 Z" id="path-27"></path>
        <path d="M26.4729474,1.55861111 L1.12373684,26.5601111 C0.675631579,27.001 0.474157895,27.5435 0.474157895,28.0756667 L0.474157895,28.0756667 C0.474157895,29.1899444 1.35126316,30.2577222 2.67473684,30.2577222 L2.67473684,30.2577222 L57.3244737,30.2577222 C58.6496842,30.2577222 59.5267895,29.1899444 59.5267895,28.0756667 L59.5267895,28.0756667 C59.5267895,27.5435 59.3270526,27.001 58.8789474,26.5601111 L58.8789474,26.5601111 L33.528,1.55861111 C32.5553684,0.599333333 31.2770526,0.118833333 30.0004737,0.118833333 L30.0004737,0.118833333 C28.7238947,0.118833333 27.4473158,0.599333333 26.4729474,1.55861111 L26.4729474,1.55861111 Z" id="path-29"></path>
        <path d="M2.67821053,0.521010526 C1.35126316,0.521010526 0.474157895,1.61743158 0.474157895,2.75806316 L0.474157895,2.75806316 C0.474157895,3.30804211 0.675631579,3.86686316 1.12373684,4.31957895 L1.12373684,4.31957895 L26.4729474,29.9899789 C28.4216842,31.9635368 31.581,31.9635368 33.528,29.9899789 L33.528,29.9899789 L58.8789474,4.31957895 C59.3270526,3.86686316 59.5267895,3.30804211 59.5267895,2.75806316 L59.5267895,2.75806316 C59.5267895,1.61743158 58.6496842,0.521010526 57.3244737,0.521010526 L57.3244737,0.521010526 L2.67821053,0.521010526 Z" id="path-31"></path>
        <path d="M27.9466667,1.00121053 L2.13866667,26.3521579 C0.156444444,28.2991579 0.156444444,31.4584737 2.13866667,33.4072105 L2.13866667,33.4072105 L27.9466667,58.7581579 C28.4017778,59.2062632 28.9635556,59.406 29.5128889,59.406 L29.5128889,59.406 C30.6631111,59.406 31.7635556,58.5306316 31.7635556,57.2036842 L31.7635556,57.2036842 L31.7635556,2.55568421 C31.7635556,1.23047368 30.6631111,0.353368421 29.5128889,0.353368421 L29.5128889,0.353368421 C28.9635556,0.353368421 28.4017778,0.553105263 27.9466667,1.00121053 L27.9466667,1.00121053 Z" id="path-33"></path>
        <path d="M0.0812535613,2.55394737 L0.0812535613,57.2019474 C0.0812535613,58.5306316 1.17464387,59.406 2.31749288,59.406 L2.31749288,59.406 C2.86507123,59.406 3.42148148,59.2062632 3.8754416,58.7581579 L3.8754416,58.7581579 L29.5162393,33.4072105 C31.485755,31.4584737 31.485755,28.2991579 29.5162393,26.3521579 L29.5162393,26.3521579 L3.8754416,1.00121053 C3.42148148,0.553105263 2.86507123,0.353368421 2.31749288,0.353368421 L2.31749288,0.353368421 C1.17464387,0.353368421 0.0812535613,1.23047368 0.0812535613,2.55394737 L0.0812535613,2.55394737 Z" id="path-35"></path>
        <path d="M26.4754737,1.55861111 L1.12452632,26.5601111 C0.674684211,27.001 0.476684211,27.5435 0.476684211,28.0756667 L0.476684211,28.0756667 C0.476684211,29.1899444 1.35378947,30.2577222 2.67726316,30.2577222 L2.67726316,30.2577222 L57.3252632,30.2577222 C58.6504737,30.2577222 59.5293158,29.1899444 59.5293158,28.0756667 L59.5293158,28.0756667 C59.5293158,27.5435 59.3295789,27.001 58.8814737,26.5601111 L58.8814737,26.5601111 L33.5287895,1.55861111 C32.5561579,0.599333333 31.2795789,0.118833333 30.003,0.118833333 L30.003,0.118833333 C28.7264211,0.118833333 27.4481053,0.599333333 26.4754737,1.55861111 L26.4754737,1.55861111 Z" id="path-37"></path>
        <path d="M26.4754737,2.00117895 L1.12452632,27.6715789 C0.674684211,28.1260632 0.476684211,28.6831158 0.476684211,29.2295579 L0.476684211,29.2295579 C0.476684211,30.3737263 1.35378947,31.4683789 2.67726316,31.4683789 L2.67726316,31.4683789 L57.3252632,31.4683789 C58.6504737,31.4683789 59.5293158,30.3737263 59.5293158,29.2295579 L59.5293158,29.2295579 C59.5293158,28.6831158 59.3295789,28.1260632 58.8814737,27.6715789 L58.8814737,27.6715789 L33.5287895,2.00117895 C32.5561579,1.01616842 31.2795789,0.522778947 30.003,0.522778947 L30.003,0.522778947 C28.7264211,0.522778947 27.4481053,1.01616842 26.4754737,2.00117895 L26.4754737,2.00117895 Z" id="path-39"></path>
        <path d="M26.9892443,1.00121053 L1.48164103,26.3521579 C-0.479265857,28.2991579 -0.479265857,31.4584737 1.48164103,33.4072105 L1.48164103,33.4072105 L26.9892443,58.7581579 C27.4373009,59.2062632 27.9907827,59.406 28.5372362,59.406 L28.5372362,59.406 C29.6740702,59.406 30.7617058,58.5306316 30.7617058,57.2036842 L30.7617058,57.2036842 L30.7617058,2.55568421 C30.7617058,1.23047368 29.6740702,0.353368421 28.5372362,0.353368421 L28.5372362,0.353368421 C27.9907827,0.353368421 27.4373009,0.553105263 26.9892443,1.00121053 L26.9892443,1.00121053 Z" id="path-41"></path>
        <path d="M0.241808367,2.55394737 L0.241808367,57.2019474 C0.241808367,58.5306316 1.33120108,59.406 2.466278,59.406 L2.466278,59.406 C3.01097436,59.406 3.56621323,59.2062632 4.01602699,58.7581579 L4.01602699,58.7581579 L29.5218731,33.4072105 C31.4810229,31.4584737 31.4810229,28.2991579 29.5218731,26.3521579 L29.5218731,26.3521579 L4.01602699,1.00121053 C3.56621323,0.553105263 3.01097436,0.353368421 2.466278,0.353368421 L2.466278,0.353368421 C1.33120108,0.353368421 0.241808367,1.23047368 0.241808367,2.55394737 L0.241808367,2.55394737 Z" id="path-43"></path>
        <path d="M27.5159579,1.00121053 L1.84378947,26.3521579 C-0.128,28.2991579 -0.128,31.4584737 1.84378947,33.4072105 L1.84378947,33.4072105 L27.5159579,58.7581579 C27.9686737,59.2062632 28.5274947,59.406 29.0739368,59.406 L29.0739368,59.406 C30.2181053,59.406 31.3127579,58.5288947 31.3127579,57.2054211 L31.3127579,57.2054211 L31.3127579,2.55742105 C31.3127579,1.23047368 30.2181053,0.353368421 29.0739368,0.353368421 L29.0739368,0.353368421 C28.5274947,0.353368421 27.9686737,0.551368421 27.5159579,1.00121053 L27.5159579,1.00121053 Z" id="path-45"></path>
        <path d="M0.600888889,2.55568421 L0.600888889,57.2019474 C0.600888889,58.5288947 1.70133333,59.406 2.85155556,59.406 L2.85155556,59.406 C3.40266667,59.406 3.96444444,59.2062632 4.41955556,58.7581579 L4.41955556,58.7581579 L30.2257778,33.4072105 C32.208,31.4584737 32.208,28.2991579 30.2257778,26.3521579 L30.2257778,26.3521579 L4.41955556,1.00121053 C3.96444444,0.551368421 3.40266667,0.353368421 2.85155556,0.353368421 L2.85155556,0.353368421 C1.70133333,0.353368421 0.600888889,1.23047368 0.600888889,2.55568421 L0.600888889,2.55568421 Z" id="path-47"></path>
        <path d="M26.2766842,1.55861111 L0.927473684,26.5601111 C0.477631579,27.001 0.277894737,27.5435 0.277894737,28.0773889 L0.277894737,28.0773889 C0.277894737,29.1899444 1.155,30.256 2.48021053,30.256 L2.48021053,30.256 L57.1282105,30.256 C58.4534211,30.256 59.3305263,29.1899444 59.3305263,28.0773889 L59.3305263,28.0773889 C59.3305263,27.5435 59.1325263,27.001 58.6826842,26.5601111 L58.6826842,26.5601111 L33.3317368,1.55861111 C32.3573684,0.597611111 31.0807895,0.118833333 29.8042105,0.118833333 L29.8042105,0.118833333 C28.5276316,0.118833333 27.2510526,0.597611111 26.2766842,1.55861111 L26.2766842,1.55861111 Z" id="path-49"></path>
        <path d="M27.904,1.00121053 L2.096,26.3521579 C0.113777778,28.2991579 0.113777778,31.4584737 2.096,33.4072105 L2.096,33.4072105 L27.904,58.7581579 C28.3591111,59.2062632 28.9191111,59.406 29.4702222,59.406 L29.4702222,59.406 C30.6186667,59.406 31.7208889,58.5288947 31.7208889,57.2054211 L31.7208889,57.2054211 L31.7208889,2.55742105 C31.7208889,1.23047368 30.6186667,0.353368421 29.4702222,0.353368421 L29.4702222,0.353368421 C28.9191111,0.353368421 28.3591111,0.551368421 27.904,1.00121053 L27.904,1.00121053 Z" id="path-51"></path>
        <path d="M27.4986667,1.00121053 L1.69066667,26.3521579 C-0.289777778,28.2991579 -0.289777778,31.4584737 1.69066667,33.4072105 L1.69066667,33.4072105 L27.4986667,58.7581579 C27.952,59.2062632 28.5137778,59.406 29.0648889,59.406 L29.0648889,59.406 C30.2133333,59.406 31.3137778,58.5288947 31.3137778,57.2054211 L31.3137778,57.2054211 L31.3137778,2.55742105 C31.3137778,1.23047368 30.2133333,0.353368421 29.0648889,0.353368421 L29.0648889,0.353368421 C28.5137778,0.353368421 27.952,0.551368421 27.4986667,1.00121053 L27.4986667,1.00121053 Z" id="path-53"></path>
        <path d="M0.604126316,2.55394737 L0.604126316,57.2019474 C0.604126316,58.5288947 1.69877895,59.406 2.84117895,59.406 L2.84117895,59.406 C3.39115789,59.406 3.94821053,59.2062632 4.40092632,58.7581579 L4.40092632,58.7581579 L30.0713263,33.4072105 C32.0431158,31.4584737 32.0431158,28.2991579 30.0713263,26.3521579 L30.0713263,26.3521579 L4.40092632,1.00294737 C3.94821053,0.551368421 3.39115789,0.353368421 2.84117895,0.353368421 L2.84117895,0.353368421 C1.69877895,0.353368421 0.604126316,1.23047368 0.604126316,2.55394737 L0.604126316,2.55394737 Z" id="path-55"></path>
        <path d="M0.199638327,2.55568421 L0.199638327,57.2019474 C0.199638327,58.5288947 1.28727395,59.406 2.42410796,59.406 L2.42410796,59.406 C2.96880432,59.406 3.5222861,59.2062632 3.97209987,58.7581579 L3.97209987,58.7581579 L29.4797031,33.4072105 C31.4388529,31.4584737 31.4388529,28.2991579 29.4797031,26.3521579 L29.4797031,26.3521579 L3.97209987,1.00121053 C3.5222861,0.551368421 2.96880432,0.353368421 2.42410796,0.353368421 L2.42410796,0.353368421 C1.28727395,0.353368421 0.199638327,1.23047368 0.199638327,2.55568421 L0.199638327,2.55568421 Z" id="path-57"></path>
        <path d="M2.67821053,0.00421052632 C1.35126316,0.00421052632 0.474157895,1.06302632 0.474157895,2.16802632 L0.474157895,2.16802632 C0.474157895,2.69828947 0.675631579,3.23881579 1.12373684,3.675 L1.12373684,3.675 L26.4729474,28.505 C28.4216842,30.4139474 31.581,30.4139474 33.528,28.505 L33.528,28.505 L58.8789474,3.675 C59.3270526,3.23881579 59.5267895,2.69828947 59.5267895,2.16802632 L59.5267895,2.16802632 C59.5267895,1.06302632 58.6496842,0.00421052632 57.3244737,0.00421052632 L57.3244737,0.00421052632 L2.67821053,0.00421052632 Z" id="path-59"></path>
        <path d="M2.67821053,0.586442105 C1.35126316,0.586442105 0.474157895,1.68109474 0.474157895,2.82349474 L0.474157895,2.82349474 C0.474157895,3.37347368 0.675631579,3.93229474 1.12373684,4.38324211 L1.12373684,4.38324211 L26.4729474,30.0554105 C28.4216842,32.0272 31.581,32.0272 33.528,30.0554105 L33.528,30.0554105 L58.8789474,4.38324211 C59.3270526,3.93229474 59.5267895,3.37347368 59.5267895,2.82349474 L59.5267895,2.82349474 C59.5267895,1.68109474 58.6496842,0.586442105 57.3244737,0.586442105 L57.3244737,0.586442105 L2.67821053,0.586442105 Z" id="path-61"></path>
        <path d="M25.9773067,1.736 L0.716496,26.7357778 C0.268253333,27.1766667 0.0709573333,27.7208889 0.0709573333,28.2547778 L0.0709573333,28.2547778 C0.0709573333,29.3673333 0.944944,30.4351111 2.263712,30.4351111 L2.263712,30.4351111 L56.717408,30.4351111 C58.0379067,30.4351111 58.913624,29.3673333 58.913624,28.2547778 L58.913624,28.2547778 C58.913624,27.7208889 58.7145973,27.1766667 58.2680853,26.7357778 L58.2680853,26.7357778 L33.0072747,1.736 C32.0363707,0.776722222 30.7643307,0.296222222 29.4922907,0.296222222 L29.4922907,0.296222222 C28.2202507,0.296222222 26.94648,0.776722222 25.9773067,1.736 L25.9773067,1.736 Z" id="path-63"></path>
        <path d="M27.6397474,1.21831579 L1.96934737,26.5692632 C-0.00244210526,28.5162632 -0.00244210526,31.6755789 1.96934737,33.6225789 L1.96934737,33.6225789 L27.6397474,58.9735263 C28.0906947,59.4233684 28.6477474,59.6213684 29.1977263,59.6213684 L29.1977263,59.6213684 C30.3418947,59.6213684 31.4365474,58.7442632 31.4365474,57.4225263 L31.4365474,57.4225263 L31.4365474,2.77452632 C31.4365474,1.44757895 30.3418947,0.568736842 29.1977263,0.568736842 L29.1977263,0.568736842 C28.6477474,0.568736842 28.0906947,0.768473684 27.6397474,1.21831579 L27.6397474,1.21831579 Z" id="path-65"></path>
        <path d="M0.646568421,2.85015789 L0.646568421,57.4981579 C0.646568421,58.8251053 1.74122105,59.7022105 2.88538947,59.7022105 L2.88538947,59.7022105 C3.4336,59.7022105 3.99242105,59.5007368 4.44336842,59.0543684 L4.44336842,59.0543684 L30.1155368,33.7034211 C32.0873263,31.7564211 32.0873263,28.5953684 30.1155368,26.6483684 L30.1155368,26.6483684 L4.44336842,1.29742105 C3.99242105,0.851052632 3.4336,0.649578947 2.88538947,0.649578947 L2.88538947,0.649578947 C1.74122105,0.649578947 0.646568421,1.52668421 0.646568421,2.85015789 L0.646568421,2.85015789 Z" id="path-67"></path>
        <path d="M26.9892443,1.29742105 L1.48164103,26.6483684 C-0.479265857,28.5953684 -0.479265857,31.7564211 1.48164103,33.7034211 L1.48164103,33.7034211 L26.9892443,59.0543684 C27.4373009,59.5007368 27.9907827,59.7022105 28.5372362,59.7022105 L28.5372362,59.7022105 C29.6740702,59.7022105 30.7617058,58.8251053 30.7617058,57.4998947 L30.7617058,57.4998947 L30.7617058,2.85189474 C30.7617058,1.52668421 29.6740702,0.649578947 28.5372362,0.649578947 L28.5372362,0.649578947 C27.9907827,0.649578947 27.4373009,0.851052632 26.9892443,1.29742105 L26.9892443,1.29742105 Z" id="path-69"></path>
        <path d="M27.5159579,1.29742105 L1.84378947,26.6483684 C-0.128,28.5953684 -0.128,31.7564211 1.84378947,33.7034211 L1.84378947,33.7034211 L27.5159579,59.0543684 C27.9686737,59.5024737 28.5274947,59.7022105 29.0739368,59.7022105 L29.0739368,59.7022105 C30.2181053,59.7022105 31.3127579,58.8251053 31.3127579,57.4998947 L31.3127579,57.4998947 L31.3127579,2.85363158 C31.3127579,1.52668421 30.2181053,0.649578947 29.0739368,0.649578947 L29.0739368,0.649578947 C28.5274947,0.649578947 27.9686737,0.849315789 27.5159579,1.29742105 L27.5159579,1.29742105 Z" id="path-71"></path>
        <path d="M0.442666667,2.85189474 L0.442666667,57.4998947 C0.442666667,58.8251053 1.54488889,59.7022105 2.69333333,59.7022105 L2.69333333,59.7022105 C3.24444444,59.7022105 3.80622222,59.5024737 4.26133333,59.0543684 L4.26133333,59.0543684 L30.0693333,33.7034211 C32.0497778,31.7564211 32.0497778,28.5953684 30.0693333,26.6466316 L30.0693333,26.6466316 L4.26133333,1.29742105 C3.80622222,0.849315789 3.24444444,0.649578947 2.69333333,0.649578947 L2.69333333,0.649578947 C1.54488889,0.649578947 0.442666667,1.52668421 0.442666667,2.85189474 L0.442666667,2.85189474 Z" id="path-73"></path>
        <path d="M27.904,1.29742105 L2.096,26.6466316 C0.113777778,28.5953684 0.113777778,31.7564211 2.096,33.7034211 L2.096,33.7034211 L27.904,59.0543684 C28.3591111,59.5024737 28.9191111,59.7022105 29.4702222,59.7022105 L29.4702222,59.7022105 C30.6186667,59.7022105 31.7208889,58.8251053 31.7208889,57.5016316 L31.7208889,57.5016316 L31.7208889,2.85363158 C31.7208889,1.52668421 30.6186667,0.649578947 29.4702222,0.649578947 L29.4702222,0.649578947 C28.9191111,0.649578947 28.3591111,0.849315789 27.904,1.29742105 L27.904,1.29742105 Z" id="path-75"></path>
        <path d="M0.0388603989,2.85189474 L0.0388603989,57.4981579 C0.0388603989,58.8251053 1.13225071,59.7022105 2.27333333,59.7022105 L2.27333333,59.7022105 C2.82267806,59.7022105 3.37908832,59.5024737 3.83128205,59.0543684 L3.83128205,59.0543684 L29.4738462,33.7034211 C31.4433618,31.7564211 31.4433618,28.5953684 29.4738462,26.6483684 L29.4738462,26.6483684 L3.83128205,1.29742105 C3.37908832,0.849315789 2.82267806,0.649578947 2.27333333,0.649578947 L2.27333333,0.649578947 C1.13225071,0.649578947 0.0388603989,1.52668421 0.0388603989,2.85189474 L0.0388603989,2.85189474 Z" id="path-77"></path>
        <path d="M26.4337895,2.06661053 L1.08110526,27.7387789 C0.633,28.1897263 0.435,28.7485474 0.435,29.2967579 L0.435,29.2967579 C0.435,30.4391579 1.31210526,31.5338105 2.63384211,31.5338105 L2.63384211,31.5338105 L57.2835789,31.5338105 C58.6087895,31.5338105 59.4858947,30.4391579 59.4858947,29.2967579 L59.4858947,29.2967579 C59.4858947,28.7485474 59.2861579,28.1897263 58.8380526,27.7387789 L58.8380526,27.7387789 L33.4871053,2.06661053 C32.5144737,1.07983158 31.2378947,0.586442105 29.9613158,0.586442105 L29.9613158,0.586442105 C28.683,0.586442105 27.4064211,1.07983158 26.4337895,2.06661053 L26.4337895,2.06661053 Z" id="path-79"></path>
        <path d="M26.4337895,1.43421053 L1.08110526,26.2659211 C0.633,26.7021053 0.435,27.2409211 0.435,27.7728947 L0.435,27.7728947 C0.435,28.8796053 1.31210526,29.9384211 2.63384211,29.9384211 L2.63384211,29.9384211 L57.2835789,29.9384211 C58.6087895,29.9384211 59.4858947,28.8796053 59.4858947,27.7728947 L59.4858947,27.7728947 C59.4858947,27.2409211 59.2861579,26.7021053 58.8380526,26.2659211 L58.8380526,26.2659211 L33.4871053,1.43421053 C32.5144737,0.479736842 31.2378947,0.0025 29.9613158,0.0025 L29.9613158,0.0025 C28.683,0.0025 27.4064211,0.479736842 26.4337895,1.43421053 L26.4337895,1.43421053 Z" id="path-81"></path>
        <path d="M27.9191579,1.29742105 L2.24698947,26.6483684 C0.2752,28.5953684 0.2752,31.7564211 2.24698947,33.7034211 L2.24698947,33.7034211 L27.9191579,59.0543684 C28.3701053,59.5007368 28.9289263,59.7022105 29.4789053,59.7022105 L29.4789053,59.7022105 C30.6213053,59.7022105 31.7159579,58.8251053 31.7159579,57.4998947 L31.7159579,57.4998947 L31.7159579,2.85189474 C31.7159579,1.52668421 30.6213053,0.649578947 29.4789053,0.649578947 L29.4789053,0.649578947 C28.9289263,0.649578947 28.3701053,0.851052632 27.9191579,1.29742105 L27.9191579,1.29742105 Z" id="path-83"></path>
        <path d="M0.199638327,2.85189474 L0.199638327,57.4981579 C0.199638327,58.8251053 1.28727395,59.7022105 2.42410796,59.7022105 L2.42410796,59.7022105 C2.96880432,59.7022105 3.5222861,59.5024737 3.97209987,59.0543684 L3.97209987,59.0543684 L29.4797031,33.7034211 C31.4388529,31.7564211 31.4388529,28.5953684 29.4797031,26.6483684 L29.4797031,26.6483684 L3.97209987,1.29742105 C3.5222861,0.849315789 2.96880432,0.649578947 2.42410796,0.649578947 L2.42410796,0.649578947 C1.28727395,0.649578947 0.199638327,1.52668421 0.199638327,2.85189474 L0.199638327,2.85189474 Z" id="path-85"></path>
        <path d="M2.67821053,0.118833333 C1.35126316,0.118833333 0.474157895,1.18488889 0.474157895,2.29744444 L0.474157895,2.29744444 C0.474157895,2.83305556 0.675631579,3.37555556 1.12373684,3.81644444 L1.12373684,3.81644444 L26.4729474,28.8162222 C28.4216842,30.7365 31.581,30.7365 33.528,28.8162222 L33.528,28.8162222 L58.8789474,3.81644444 C59.3270526,3.37555556 59.5267895,2.83305556 59.5267895,2.29744444 L59.5267895,2.29744444 C59.5267895,1.18488889 58.6496842,0.118833333 57.3244737,0.118833333 L57.3244737,0.118833333 L2.67821053,0.118833333 Z" id="path-87"></path>
        <path d="M0.646568421,2.55568421 L0.646568421,57.2036842 C0.646568421,58.5288947 1.74122105,59.406 2.88538947,59.406 L2.88538947,59.406 C3.4336,59.406 3.99242105,59.2062632 4.44336842,58.7581579 L4.44336842,58.7581579 L30.1155368,33.4054737 C32.0873263,31.4584737 32.0873263,28.2991579 30.1155368,26.3521579 L30.1155368,26.3521579 L4.44336842,1.00121053 C3.99242105,0.551368421 3.4336,0.353368421 2.88538947,0.353368421 L2.88538947,0.353368421 C1.74122105,0.353368421 0.646568421,1.23047368 0.646568421,2.55568421 L0.646568421,2.55568421 Z" id="path-89"></path>
        <path d="M27.9191579,1.00121053 L2.24698947,26.3521579 C0.2752,28.2991579 0.2752,31.4584737 2.24698947,33.4072105 L2.24698947,33.4072105 L27.9191579,58.7581579 C28.3701053,59.2062632 28.9289263,59.406 29.4789053,59.406 L29.4789053,59.406 C30.6213053,59.406 31.7159579,58.5288947 31.7159579,57.2054211 L31.7159579,57.2054211 L31.7159579,2.55742105 C31.7159579,1.23047368 30.6213053,0.353368421 29.4789053,0.353368421 L29.4789053,0.353368421 C28.9289263,0.353368421 28.3701053,0.551368421 27.9191579,1.00121053 L27.9191579,1.00121053 Z" id="path-91"></path>
        <path d="M27.5035789,1.00215789 L1.83141053,26.3531053 C-0.138610526,28.3001053 -0.138610526,31.4594211 1.83141053,33.4064211 L1.83141053,33.4064211 L27.5035789,58.7573684 C27.9562947,59.2072105 28.5151158,59.4052105 29.0615579,59.4052105 L29.0615579,59.4052105 C30.2057263,59.4052105 31.3021474,58.5281053 31.3021474,57.2063684 L31.3021474,57.2063684 L31.3021474,2.55836842 C31.3021474,1.23142105 30.2057263,0.352578947 29.0615579,0.352578947 L29.0615579,0.352578947 C28.5151158,0.352578947 27.9562947,0.552315789 27.5035789,1.00215789 L27.5035789,1.00215789 Z" id="path-93"></path>
        <path d="M26.1871579,2.10627778 L0.837947368,27.1077778 C0.388105263,27.5469444 0.188368421,28.0894444 0.188368421,28.6233333 L0.188368421,28.6233333 C0.188368421,29.7376111 1.06547368,30.8036667 2.39068421,30.8036667 L2.39068421,30.8036667 L57.0369474,30.8036667 C58.3638947,30.8036667 59.241,29.7376111 59.241,28.6233333 L59.241,28.6233333 C59.241,28.0894444 59.0412632,27.5469444 58.5931579,27.1077778 L58.5931579,27.1077778 L33.2422105,2.10627778 C32.2678421,1.14527778 30.9912632,0.664777778 29.7146842,0.664777778 L29.7146842,0.664777778 C28.4381053,0.664777778 27.1615263,1.14527778 26.1871579,2.10627778 L26.1871579,2.10627778 Z" id="path-95"></path>
    </defs>
    <g id="mundi_pattern_#082558" stroke="none" stroke-width="1" fill="none" fill-rule="evenodd">
        <g id="Group-241">
            <path d="M47.3193234,327.647265 L22.4323266,352.975618 C20.5225578,354.920882 20.5225578,358.077382 22.4323266,360.022647 L47.3193234,385.352735 C47.7581931,385.800441 48.2982085,386 48.8313666,386 C49.9388268,386 51,385.123676 51,383.799647 L51,329.202088 C51,327.876324 49.9388268,327 48.8313666,327 C48.2982085,327 47.7581931,327.197824 47.3193234,327.647265" id="Fill-1" fill="#082558"></path>
            <g id="Group-5" transform="translate(20.000000, 326.000000)">
                <mask id="mask-2" fill="#082558">
                    <use xlink:href="#path-1"></use>
                </mask>
                <g id="Clip-4"></g>
                <polygon id="Fill-3" fill="#082558" mask="url(#mask-2)" points="-8.31822222 68.4784737 40.5706667 68.4784737 40.5706667 -7.94257895 -8.31822222 -7.94257895"></polygon>
            </g>
            <path d="M3.68051885,385.352735 L28.5664491,360.022647 C30.4778503,358.077382 30.4778503,354.920882 28.5664491,352.975618 L3.68051885,327.647265 C3.24338224,327.197824 2.70167569,327 2.17025471,327 C1.0611277,327 0,327.876324 0,329.200353 L0,383.797912 C0,385.123676 1.0611277,386 2.17025471,386 C2.70167569,386 3.24338224,385.800441 3.68051885,385.352735" id="Fill-6" fill="#082558"></path>
            <g id="Group-10" transform="translate(0.000000, 326.000000)">
                <mask id="mask-4" fill="#082558">
                    <use xlink:href="#path-3"></use>
                </mask>
                <g id="Clip-9"></g>
                <polygon id="Fill-8" fill="#082558" mask="url(#mask-4)" points="-8.83190883 68.4784737 39.7435897 68.4784737 39.7435897 -7.94257895 -8.83190883 -7.94257895"></polygon>
            </g>
            <path d="M327.351,453.320985 L302.022647,428.433633 C300.077382,426.522122 296.920882,426.522122 294.973882,428.433633 L269.647265,453.320985 C269.197824,453.758147 269,454.29817 269,454.831336 C269,455.938812 269.874588,457 271.198618,457 L325.796176,457 C327.121941,457 328,455.938812 328,454.831336 C328,454.29817 327.798706,453.758147 327.351,453.320985" id="Fill-11" fill="#082558"></path>
            <g id="Group-15" transform="translate(268.000000, 425.000000)">
                <mask id="mask-6" fill="#082558">
                    <use xlink:href="#path-5"></use>
                </mask>
                <g id="Clip-14"></g>
                <polygon id="Fill-13" fill="#082558" mask="url(#mask-6)" points="-8.046 40.4696421 68.3750526 40.4696421 68.3750526 -8.16193684 -8.046 -8.16193684"></polygon>
            </g>
            <path d="M327.351,432.320985 L302.022647,407.433633 C300.077382,405.522122 296.920882,405.522122 294.973882,407.433633 L269.647265,432.320985 C269.197824,432.759861 269,433.299884 269,433.831336 C269,434.938812 269.874588,436 271.198618,436 L325.796176,436 C327.121941,436 328,434.938812 328,433.831336 C328,433.299884 327.798706,432.759861 327.351,432.320985" id="Fill-16" fill="#082558"></path>
            <g id="Group-20" transform="translate(268.000000, 405.000000)">
                <mask id="mask-8" fill="#082558">
                    <use xlink:href="#path-7"></use>
                </mask>
                <g id="Clip-19"></g>
                <polygon id="Fill-18" fill="#082558" mask="url(#mask-8)" points="-8.046 39.646197 68.3750526 39.646197 68.3750526 -8.67364103 -8.046 -8.67364103"></polygon>
            </g>
            <path d="M252.319481,369.647265 L227.433551,394.975618 C225.52215,396.920882 225.52215,400.079118 227.433551,402.024382 L252.319481,427.352735 C252.756618,427.800441 253.298324,428 253.829745,428 C254.938872,428 256,427.123676 256,425.799647 L256,371.202088 C256,369.876324 254.938872,369 253.829745,369 C253.298324,369 252.756618,369.199559 252.319481,369.647265" id="Fill-21" fill="#082558"></path>
            <g id="Group-25" transform="translate(225.000000, 368.000000)">
                <mask id="mask-10" fill="#082558">
                    <use xlink:href="#path-9"></use>
                </mask>
                <g id="Clip-24"></g>
                <polygon id="Fill-23" fill="#082558" mask="url(#mask-10)" points="-8.82307692 68.3864211 39.7524217 68.3864211 39.7524217 -8.03463158 -8.82307692 -8.03463158"></polygon>
            </g>
            <path d="M208.680519,385.352735 L233.566449,360.022647 C235.47785,358.077382 235.47785,354.920882 233.566449,352.975618 L208.680519,327.647265 C208.243382,327.197824 207.701676,327 207.170255,327 C206.061128,327 205,327.876324 205,329.200353 L205,383.797912 C205,385.123676 206.061128,386 207.170255,386 C207.701676,386 208.243382,385.800441 208.680519,385.352735" id="Fill-26" fill="#082558"></path>
            <g id="Group-30" transform="translate(204.000000, 326.000000)">
                <mask id="mask-12" fill="#082558">
                    <use xlink:href="#path-11"></use>
                </mask>
                <g id="Clip-29"></g>
                <polygon id="Fill-28" fill="#082558" mask="url(#mask-12)" points="-8.43250526 68.4784737 40.1990737 68.4784737 40.1990737 -7.94257895 -8.43250526 -7.94257895"></polygon>
            </g>
            <path d="M184.319481,327.647265 L159.433551,352.975618 C157.52215,354.920882 157.52215,358.077382 159.433551,360.022647 L184.319481,385.352735 C184.758332,385.800441 185.298324,386 185.829745,386 C186.938872,386 188,385.123676 188,383.799647 L188,329.202088 C188,327.876324 186.938872,327 185.829745,327 C185.298324,327 184.758332,327.197824 184.319481,327.647265" id="Fill-31" fill="#082558"></path>
            <g id="Group-35" transform="translate(157.000000, 326.000000)">
                <mask id="mask-14" fill="#082558">
                    <use xlink:href="#path-13"></use>
                </mask>
                <g id="Clip-34"></g>
                <polygon id="Fill-33" fill="#082558" mask="url(#mask-14)" points="-8.26804211 68.4784737 40.3635368 68.4784737 40.3635368 -7.94257895 -8.26804211 -7.94257895"></polygon>
            </g>
            <path d="M140.680677,368.352735 L165.567673,343.022647 C167.477442,341.077382 167.477442,337.920882 165.567673,335.975618 L140.680677,310.647265 C140.241807,310.197824 139.701791,310 139.170348,310 C138.061173,310 137,310.876324 137,312.200353 L137,366.797912 C137,368.123676 138.061173,369 139.170348,369 C139.701791,369 140.241807,368.800441 140.680677,368.352735" id="Fill-36" fill="#082558"></path>
            <g id="Group-40" transform="translate(136.000000, 309.000000)">
                <mask id="mask-16" fill="#082558">
                    <use xlink:href="#path-15"></use>
                </mask>
                <g id="Clip-39"></g>
                <polygon id="Fill-38" fill="#082558" mask="url(#mask-16)" points="-8.82131054 68.4784737 39.754188 68.4784737 39.754188 -7.94257895 -8.82131054 -7.94257895"></polygon>
            </g>
            <path d="M71.6805188,385.352735 L96.5664491,360.022647 C98.4778503,358.077382 98.4778503,354.920882 96.5664491,352.975618 L71.6805188,327.647265 C71.241668,327.197824 70.7016757,327 70.1702547,327 C69.0611277,327 68,327.876324 68,329.200353 L68,383.797912 C68,385.123676 69.0611277,386 70.1702547,386 C70.7016757,386 71.241668,385.800441 71.6805188,385.352735" id="Fill-41" fill="#082558"></path>
            <g id="Group-45" transform="translate(67.000000, 326.000000)">
                <mask id="mask-18" fill="#082558">
                    <use xlink:href="#path-17"></use>
                </mask>
                <g id="Clip-44"></g>
                <polygon id="Fill-43" fill="#082558" mask="url(#mask-18)" points="-8.48355556 68.4784737 40.4053333 68.4784737 40.4053333 -7.94257895 -8.48355556 -7.94257895"></polygon>
            </g>
            <path d="M31.6472647,281.680519 L56.9756176,306.566449 C58.9208824,308.47785 62.0791176,308.47785 64.0243824,306.566449 L89.351,281.680519 C89.8004412,281.241668 90,280.701676 90,280.16854 C90,279.061128 89.1236765,278 87.7996471,278 L33.2020882,278 C31.8763235,278 31,279.061128 31,280.16854 C31,280.701676 31.1995588,281.241668 31.6472647,281.680519" id="Fill-46" fill="#082558"></path>
            <g id="Group-50" transform="translate(31.000000, 277.000000)">
                <mask id="mask-20" fill="#082558">
                    <use xlink:href="#path-19"></use>
                </mask>
                <g id="Clip-49"></g>
                <polygon id="Fill-48" fill="#082558" mask="url(#mask-20)" points="-8.60849333 40.4696421 67.54084 40.4696421 67.54084 -8.16193684 -8.60849333 -8.16193684"></polygon>
            </g>
            <path d="M288.647265,279.679015 L313.975618,304.566367 C315.920882,306.477878 319.079118,306.477878 321.024382,304.566367 L346.352735,279.679015 C346.800441,279.241853 347,278.70183 347,278.168664 C347,277.061188 346.123676,276 344.801382,276 L290.202088,276 C288.876324,276 288,277.061188 288,278.168664 C288,278.70183 288.199559,279.241853 288.647265,279.679015" id="Fill-51" fill="#082558"></path>
            <g id="Group-55" transform="translate(287.000000, 275.000000)">
                <mask id="mask-22" fill="#082558">
                    <use xlink:href="#path-21"></use>
                </mask>
                <g id="Clip-54"></g>
                <polygon id="Fill-53" fill="#082558" mask="url(#mask-22)" points="-8.28221053 40.1866947 68.1388421 40.1866947 68.1388421 -8.44488421 -8.28221053 -8.44488421"></polygon>
            </g>
            <path d="M219.319481,429.647265 L194.433551,454.975618 C192.52215,456.922618 192.52215,460.079118 194.433551,462.024382 L219.319481,487.352735 C219.758332,487.800441 220.298324,488 220.829745,488 C221.938872,488 223,487.123676 223,485.799647 L223,431.202088 C223,429.876324 221.938872,429 220.829745,429 C220.298324,429 219.758332,429.199559 219.319481,429.647265" id="Fill-56" fill="#082558"></path>
            <g id="Group-60" transform="translate(192.000000, 429.000000)">
                <mask id="mask-24" fill="#082558">
                    <use xlink:href="#path-23"></use>
                </mask>
                <g id="Clip-59"></g>
                <polygon id="Fill-58" fill="#082558" mask="url(#mask-24)" points="-8.2256 67.6764706 40.4059789 67.6764706 40.4059789 -8.67647059 -8.2256 -8.67647059"></polygon>
            </g>
            <path d="M51.649,197.680519 L76.9773529,222.566449 C78.9226176,224.47785 82.0791176,224.47785 84.0243824,222.566449 L109.352735,197.680519 C109.802176,197.241668 110,196.701676 110,196.16854 C110,195.061128 109.125412,194 107.801382,194 L53.2020882,194 C51.8780588,194 51,195.061128 51,196.16854 C51,196.701676 51.1995588,197.241668 51.649,197.680519" id="Fill-61" fill="#082558"></path>
            <g id="Group-65" transform="translate(51.000000, 193.000000)">
                <mask id="mask-26" fill="#082558">
                    <use xlink:href="#path-25"></use>
                </mask>
                <g id="Clip-64"></g>
                <polygon id="Fill-63" fill="#082558" mask="url(#mask-26)" points="-8.41152632 39.7709501 68.0095263 39.7709501 68.0095263 -8.54888799 -8.41152632 -8.54888799"></polygon>
            </g>
            <path d="M115.319481,280.647265 L90.4335509,305.975618 C88.5221497,307.920882 88.5221497,311.077382 90.4335509,313.022647 L115.319481,338.352735 C115.758332,338.800441 116.298324,339 116.829745,339 C117.938872,339 119,338.123676 119,336.799647 L119,282.202088 C119,280.876324 117.938872,280 116.829745,280 C116.298324,280 115.758332,280.197824 115.319481,280.647265" id="Fill-66" fill="#082558"></path>
            <g id="Group-70" transform="translate(89.000000, 280.000000)">
                <mask id="mask-28" fill="#082558">
                    <use xlink:href="#path-27"></use>
                </mask>
                <g id="Clip-69"></g>
                <polygon id="Fill-68" fill="#082558" mask="url(#mask-28)" points="-8.61565722 68.4784737 39.7041808 68.4784737 39.7041808 -7.94257895 -8.61565722 -7.94257895"></polygon>
            </g>
            <path d="M227.352735,185.320985 L202.024382,160.433633 C200.079118,158.522122 196.920882,158.522122 194.975618,160.433633 L169.649,185.320985 C169.199559,185.759861 169,186.299884 169,186.831336 C169,187.938812 169.876324,189 171.200353,189 L225.797912,189 C227.123676,189 228,187.938812 228,186.831336 C228,186.299884 227.800441,185.759861 227.352735,185.320985" id="Fill-71" fill="#082558"></path>
            <g id="Group-75" transform="translate(168.000000, 159.000000)">
                <mask id="mask-30" fill="#082558">
                    <use xlink:href="#path-29"></use>
                </mask>
                <g id="Clip-74"></g>
                <polygon id="Fill-73" fill="#082558" mask="url(#mask-30)" points="-8.21005263 38.8671111 68.211 38.8671111 68.211 -8.494 -8.21005263 -8.494"></polygon>
            </g>
            <path d="M169.649,140.680519 L194.977353,165.566449 C196.922618,167.47785 200.080853,167.47785 202.026118,165.566449 L227.352735,140.680519 C227.802176,140.241668 228,139.701676 228,139.16854 C228,138.062842 227.125412,137 225.801382,137 L171.203824,137 C169.878059,137 169,138.062842 169,139.16854 C169,139.701676 169.201294,140.241668 169.649,140.680519" id="Fill-76" fill="#082558"></path>
            <g id="Group-80" transform="translate(168.000000, 136.000000)">
                <mask id="mask-32" fill="#082558">
                    <use xlink:href="#path-31"></use>
                </mask>
                <g id="Clip-79"></g>
                <polygon id="Fill-78" fill="#082558" mask="url(#mask-32)" points="-8.21005263 40.3104842 68.211 40.3104842 68.211 -8.32109474 -8.21005263 -8.32109474"></polygon>
            </g>
            <path d="M424.319481,134.647265 L399.433551,159.975618 C397.52215,161.920882 397.52215,165.077382 399.433551,167.022647 L424.319481,192.352735 C424.758332,192.800441 425.298324,193 425.829745,193 C426.938872,193 428,192.123676 428,190.799647 L428,136.202088 C428,134.876324 426.938872,134 425.829745,134 C425.298324,134 424.758332,134.197824 424.319481,134.647265" id="Fill-81" fill="#082558"></path>
            <g id="Group-85" transform="translate(397.000000, 133.000000)">
                <mask id="mask-34" fill="#082558">
                    <use xlink:href="#path-33"></use>
                </mask>
                <g id="Clip-84"></g>
                <polygon id="Fill-83" fill="#082558" mask="url(#mask-34)" points="-8.23644444 68.0902105 40.6524444 68.0902105 40.6524444 -8.33084211 -8.23644444 -8.33084211"></polygon>
            </g>
            <path d="M380.680519,192.352735 L405.566449,167.022647 C407.47785,165.077382 407.47785,161.920882 405.566449,159.975618 L380.680519,134.647265 C380.241668,134.197824 379.701676,134 379.170255,134 C378.061128,134 377,134.876324 377,136.200353 L377,190.797912 C377,192.123676 378.061128,193 379.170255,193 C379.701676,193 380.241668,192.800441 380.680519,192.352735" id="Fill-86" fill="#082558"></path>
            <g id="Group-90" transform="translate(377.000000, 133.000000)">
                <mask id="mask-36" fill="#082558">
                    <use xlink:href="#path-35"></use>
                </mask>
                <g id="Clip-89"></g>
                <polygon id="Fill-88" fill="#082558" mask="url(#mask-36)" points="-8.75065527 68.0902105 39.8248433 68.0902105 39.8248433 -8.33084211 -8.75065527 -8.33084211"></polygon>
            </g>
            <path d="M363.351,185.320985 L338.022647,160.433633 C336.077382,158.522122 332.920882,158.522122 330.975618,160.433633 L305.647265,185.320985 C305.197824,185.759861 305,186.299884 305,186.831336 C305,187.938812 305.874588,189 307.198618,189 L361.797912,189 C363.121941,189 364,187.938812 364,186.831336 C364,186.299884 363.800441,185.759861 363.351,185.320985" id="Fill-91" fill="#082558"></path>
            <g id="Group-95" transform="translate(304.000000, 159.000000)">
                <mask id="mask-38" fill="#082558">
                    <use xlink:href="#path-37"></use>
                </mask>
                <g id="Clip-94"></g>
                <polygon id="Fill-93" fill="#082558" mask="url(#mask-38)" points="-8.20752632 38.8671111 68.2135263 38.8671111 68.2135263 -8.494 -8.20752632 -8.494"></polygon>
            </g>
            <path d="M363.351,163.320985 L338.022647,138.433633 C336.077382,136.522122 332.920882,136.522122 330.975618,138.433633 L305.647265,163.320985 C305.197824,163.759861 305,164.299884 305,164.831336 C305,165.938812 305.874588,167 307.198618,167 L361.797912,167 C363.121941,167 364,165.938812 364,164.831336 C364,164.299884 363.800441,163.759861 363.351,163.320985" id="Fill-96" fill="#082558"></path>
            <g id="Group-100" transform="translate(304.000000, 136.000000)">
                <mask id="mask-40" fill="#082558">
                    <use xlink:href="#path-39"></use>
                </mask>
                <g id="Clip-99"></g>
                <polygon id="Fill-98" fill="#082558" mask="url(#mask-40)" points="-8.20752632 40.3104842 68.2135263 40.3104842 68.2135263 -8.32109474 -8.20752632 -8.32109474"></polygon>
            </g>
            <path d="M288.319481,134.647265 L263.433551,159.975618 C261.52215,161.920882 261.52215,165.077382 263.433551,167.022647 L288.319481,192.352735 C288.756618,192.800441 289.298324,193 289.829745,193 C290.938872,193 292,192.123676 292,190.799647 L292,136.202088 C292,134.876324 290.938872,134 289.829745,134 C289.298324,134 288.756618,134.197824 288.319481,134.647265" id="Fill-101" fill="#082558"></path>
            <g id="Group-105" transform="translate(261.000000, 133.000000)">
                <mask id="mask-42" fill="#082558">
                    <use xlink:href="#path-41"></use>
                </mask>
                <g id="Clip-104"></g>
                <polygon id="Fill-103" fill="#082558" mask="url(#mask-42)" points="-8.77270715 68.0902105 39.5471309 68.0902105 39.5471309 -8.33084211 -8.77270715 -8.33084211"></polygon>
            </g>
            <path d="M244.680677,192.352735 L269.567673,167.022647 C271.477442,165.077382 271.477442,161.920882 269.567673,159.975618 L244.680677,134.647265 C244.241807,134.197824 243.701791,134 243.168633,134 C242.061173,134 241,134.876324 241,136.200353 L241,190.797912 C241,192.123676 242.061173,193 243.168633,193 C243.701791,193 244.241807,192.800441 244.680677,192.352735" id="Fill-106" fill="#082558"></path>
            <g id="Group-110" transform="translate(240.000000, 133.000000)">
                <mask id="mask-44" fill="#082558">
                    <use xlink:href="#path-43"></use>
                </mask>
                <g id="Clip-109"></g>
                <polygon id="Fill-108" fill="#082558" mask="url(#mask-44)" points="-8.54361673 68.0902105 39.7762213 68.0902105 39.7762213 -8.33084211 -8.54361673 -8.33084211"></polygon>
            </g>
            <path d="M186.319481,74.6472647 L161.433551,99.9756176 C159.52215,101.920882 159.52215,105.077382 161.433551,107.022647 L186.319481,132.352735 C186.758332,132.800441 187.298324,133 187.829745,133 C188.938872,133 190,132.123676 190,130.799647 L190,76.2020882 C190,74.8763235 188.938872,74 187.829745,74 C187.298324,74 186.758332,74.1978235 186.319481,74.6472647" id="Fill-111" fill="#082558"></path>
            <g id="Group-115" transform="translate(159.000000, 74.000000)">
                <mask id="mask-46" fill="#082558">
                    <use xlink:href="#path-45"></use>
                </mask>
                <g id="Clip-114"></g>
                <polygon id="Fill-113" fill="#082558" mask="url(#mask-46)" points="-8.47671579 68.0902105 40.1548632 68.0902105 40.1548632 -8.33084211 -8.47671579 -8.33084211"></polygon>
            </g>
            <path d="M141.680677,132.352735 L166.567673,107.022647 C168.477442,105.077382 168.477442,101.920882 166.567673,99.9756176 L141.680677,74.6472647 C141.241807,74.1978235 140.701791,74 140.170348,74 C139.061173,74 138,74.8763235 138,76.2003529 L138,130.797912 C138,132.123676 139.061173,133 140.170348,133 C140.701791,133 141.241807,132.800441 141.680677,132.352735" id="Fill-116" fill="#082558"></path>
            <g id="Group-120" transform="translate(136.000000, 74.000000)">
                <mask id="mask-48" fill="#082558">
                    <use xlink:href="#path-47"></use>
                </mask>
                <g id="Clip-119"></g>
                <polygon id="Fill-118" fill="#082558" mask="url(#mask-48)" points="-8.288 68.0902105 40.6008889 68.0902105 40.6008889 -8.33084211 -8.288 -8.33084211"></polygon>
            </g>
            <path d="M464.352735,125.320985 L439.024382,100.433633 C437.079118,98.5221224 433.920882,98.5221224 431.975618,100.433633 L406.649,125.320985 C406.199559,125.759861 406,126.299884 406,126.831336 C406,127.938812 406.876324,129 408.200353,129 L462.797912,129 C464.123676,129 465,127.938812 465,126.831336 C465,126.299884 464.800441,125.759861 464.352735,125.320985" id="Fill-121" fill="#082558"></path>
            <g id="Group-125" transform="translate(406.000000, 99.000000)">
                <mask id="mask-50" fill="#082558">
                    <use xlink:href="#path-49"></use>
                </mask>
                <g id="Clip-124"></g>
                <polygon id="Fill-123" fill="#082558" mask="url(#mask-50)" points="-8.40631579 38.8671111 68.0147368 38.8671111 68.0147368 -8.494 -8.40631579 -8.494"></polygon>
            </g>
            <path d="M389.319481,74.6472647 L364.433551,99.9756176 C362.52215,101.920882 362.52215,105.077382 364.433551,107.022647 L389.319481,132.352735 C389.758332,132.800441 390.298324,133 390.829745,133 C391.938872,133 393,132.123676 393,130.799647 L393,76.2020882 C393,74.8763235 391.938872,74 390.829745,74 C390.298324,74 389.758332,74.1978235 389.319481,74.6472647" id="Fill-126" fill="#082558"></path>
            <g id="Group-130" transform="translate(362.000000, 74.000000)">
                <mask id="mask-52" fill="#082558">
                    <use xlink:href="#path-51"></use>
                </mask>
                <g id="Clip-129"></g>
                <polygon id="Fill-128" fill="#082558" mask="url(#mask-52)" points="-8.27911111 68.0902105 40.6097778 68.0902105 40.6097778 -8.33084211 -8.27911111 -8.33084211"></polygon>
            </g>
            <path d="M321.319323,74.6472647 L296.432327,99.9756176 C294.522558,101.920882 294.522558,105.077382 296.432327,107.022647 L321.319323,132.352735 C321.758193,132.800441 322.298209,133 322.829652,133 C323.938827,133 325,132.123676 325,130.799647 L325,76.2020882 C325,74.8763235 323.938827,74 322.829652,74 C322.298209,74 321.758193,74.1978235 321.319323,74.6472647" id="Fill-131" fill="#082558"></path>
            <g id="Group-135" transform="translate(294.000000, 74.000000)">
                <mask id="mask-54" fill="#082558">
                    <use xlink:href="#path-53"></use>
                </mask>
                <g id="Clip-134"></g>
                <polygon id="Fill-133" fill="#082558" mask="url(#mask-54)" points="-8.68444444 68.0902105 40.2044444 68.0902105 40.2044444 -8.33084211 -8.68444444 -8.33084211"></polygon>
            </g>
            <path d="M277.680519,115.352735 L302.566449,90.0226471 C304.47785,88.0773824 304.47785,84.9208824 302.566449,82.9756176 L277.680519,57.6472647 C277.241668,57.1978235 276.701676,57 276.170255,57 C275.061128,57 274,57.8763235 274,59.2003529 L274,113.797912 C274,115.123676 275.061128,116 276.170255,116 C276.701676,116 277.241668,115.800441 277.680519,115.352735" id="Fill-136" fill="#082558"></path>
            <g id="Group-140" transform="translate(273.000000, 57.000000)">
                <mask id="mask-56" fill="#082558">
                    <use xlink:href="#path-55"></use>
                </mask>
                <g id="Clip-139"></g>
                <polygon id="Fill-138" fill="#082558" mask="url(#mask-56)" points="-8.23797895 68.0902105 40.3936 68.0902105 40.3936 -8.33084211 -8.23797895 -8.33084211"></polygon>
            </g>
            <path d="M209.680519,132.352735 L234.566449,107.022647 C236.47785,105.077382 236.47785,101.920882 234.566449,99.9756176 L209.680519,74.6472647 C209.243382,74.1978235 208.701676,74 208.170255,74 C207.061128,74 206,74.8763235 206,76.2003529 L206,130.797912 C206,132.123676 207.061128,133 208.170255,133 C208.701676,133 209.243382,132.800441 209.680519,132.352735" id="Fill-141" fill="#082558"></path>
            <g id="Group-145" transform="translate(205.000000, 74.000000)">
                <mask id="mask-58" fill="#082558">
                    <use xlink:href="#path-57"></use>
                </mask>
                <g id="Clip-144"></g>
                <polygon id="Fill-143" fill="#082558" mask="url(#mask-58)" points="-8.58578677 68.0902105 39.7340513 68.0902105 39.7340513 -8.33084211 -8.58578677 -8.33084211"></polygon>
            </g>
            <path d="M169.649,260.679015 L194.977353,285.566367 C196.922618,287.477878 200.080853,287.477878 202.026118,285.566367 L227.352735,260.679015 C227.802176,260.240139 228,259.700116 228,259.168664 C228,258.061188 227.125412,257 225.801382,257 L171.203824,257 C169.878059,257 169,258.061188 169,259.168664 C169,259.700116 169.201294,260.240139 169.649,260.679015" id="Fill-146" fill="#082558"></path>
            <g id="Group-150" transform="translate(168.000000, 257.000000)">
                <mask id="mask-60" fill="#082558">
                    <use xlink:href="#path-59"></use>
                </mask>
                <g id="Clip-149"></g>
                <polygon id="Fill-148" fill="#082558" mask="url(#mask-60)" points="-8.21005263 38.4910526 68.211 38.4910526 68.211 -8.54842105 -8.21005263 -8.54842105"></polygon>
            </g>
            <path d="M169.649,281.680519 L194.977353,306.566449 C196.922618,308.47785 200.080853,308.47785 202.026118,306.566449 L227.352735,281.680519 C227.802176,281.241668 228,280.701676 228,280.16854 C228,279.061128 227.125412,278 225.801382,278 L171.203824,278 C169.878059,278 169,279.061128 169,280.16854 C169,280.701676 169.201294,281.241668 169.649,281.680519" id="Fill-151" fill="#082558"></path>
            <g id="Group-155" transform="translate(168.000000, 277.000000)">
                <mask id="mask-62" fill="#082558">
                    <use xlink:href="#path-61"></use>
                </mask>
                <g id="Clip-154"></g>
                <polygon id="Fill-153" fill="#082558" mask="url(#mask-62)" points="-8.21005263 40.3759158 68.211 40.3759158 68.211 -8.25566316 -8.21005263 -8.25566316"></polygon>
            </g>
            <path d="M525.351,209.319323 L500.022647,184.432327 C498.077382,182.522558 494.920882,182.522558 492.975618,184.432327 L467.647265,209.319323 C467.197824,209.758193 467,210.298209 467,210.831367 C467,211.938827 467.874588,213 469.198618,213 L523.797912,213 C525.121941,213 526,211.938827 526,210.831367 C526,210.298209 525.798706,209.758193 525.351,209.319323" id="Fill-156" fill="#082558"></path>
            <g id="Group-160" transform="translate(467.000000, 183.000000)">
                <mask id="mask-64" fill="#082558">
                    <use xlink:href="#path-63"></use>
                </mask>
                <g id="Clip-159"></g>
                <polygon id="Fill-158" fill="#082558" mask="url(#mask-64)" points="-8.582376 39.0462222 67.5669573 39.0462222 67.5669573 -8.31488889 -8.582376 -8.31488889"></polygon>
            </g>
            <path d="M383.319481,326.649 L358.433551,351.977353 C356.52215,353.922618 356.52215,357.079118 358.433551,359.024382 L383.319481,384.352735 C383.756618,384.802176 384.298324,385 384.829745,385 C385.938872,385 387,384.123676 387,382.801382 L387,328.203824 C387,326.878059 385.938872,326 384.829745,326 C384.298324,326 383.756618,326.199559 383.319481,326.649" id="Fill-161" fill="#082558"></path>
            <g id="Group-165" transform="translate(356.000000, 325.000000)">
                <mask id="mask-66" fill="#082558">
                    <use xlink:href="#path-65"></use>
                </mask>
                <g id="Clip-164"></g>
                <polygon id="Fill-163" fill="#082558" mask="url(#mask-66)" points="-8.35292632 68.3055789 40.2786526 68.3055789 40.2786526 -8.11547368 -8.35292632 -8.11547368"></polygon>
            </g>
            <path d="M312.680519,385.352735 L337.566449,360.024382 C339.47785,358.079118 339.47785,354.920882 337.566449,352.975618 L312.680519,327.647265 C312.243382,327.199559 311.701676,327 311.170255,327 C310.061128,327 309,327.876324 309,329.200353 L309,383.797912 C309,385.123676 310.061128,386 311.170255,386 C311.701676,386 312.243382,385.800441 312.680519,385.352735" id="Fill-166" fill="#082558"></path>
            <g id="Group-170" transform="translate(308.000000, 326.000000)">
                <mask id="mask-68" fill="#082558">
                    <use xlink:href="#path-67"></use>
                </mask>
                <g id="Clip-169"></g>
                <polygon id="Fill-168" fill="#082558" mask="url(#mask-68)" points="-8.19553684 68.3864211 40.4360421 68.3864211 40.4360421 -8.03463158 -8.19553684 -8.03463158"></polygon>
            </g>
            <path d="M288.319481,327.647265 L263.433551,352.975618 C261.52215,354.920882 261.52215,358.079118 263.433551,360.024382 L288.319481,385.352735 C288.756618,385.800441 289.298324,386 289.829745,386 C290.938872,386 292,385.123676 292,383.799647 L292,329.202088 C292,327.876324 290.938872,327 289.829745,327 C289.298324,327 288.756618,327.199559 288.319481,327.647265" id="Fill-171" fill="#082558"></path>
            <g id="Group-175" transform="translate(261.000000, 326.000000)">
                <mask id="mask-70" fill="#082558">
                    <use xlink:href="#path-69"></use>
                </mask>
                <g id="Clip-174"></g>
                <polygon id="Fill-173" fill="#082558" mask="url(#mask-70)" points="-8.77270715 68.3864211 39.5471309 68.3864211 39.5471309 -8.03463158 -8.77270715 -8.03463158"></polygon>
            </g>
            <path d="M186.319481,194.647265 L161.433551,219.975618 C159.52215,221.920882 159.52215,225.079118 161.433551,227.024382 L186.319481,252.352735 C186.758332,252.800441 187.298324,253 187.829745,253 C188.938872,253 190,252.123676 190,250.799647 L190,196.202088 C190,194.876324 188.938872,194 187.829745,194 C187.298324,194 186.758332,194.199559 186.319481,194.647265" id="Fill-176" fill="#082558"></path>
            <g id="Group-180" transform="translate(159.000000, 193.000000)">
                <mask id="mask-72" fill="#082558">
                    <use xlink:href="#path-71"></use>
                </mask>
                <g id="Clip-179"></g>
                <polygon id="Fill-178" fill="#082558" mask="url(#mask-72)" points="-8.47671579 68.3864211 40.1548632 68.3864211 40.1548632 -8.03463158 -8.47671579 -8.03463158"></polygon>
            </g>
            <path d="M430.680677,286.352735 L455.567673,261.024382 C457.477442,259.079118 457.477442,255.920882 455.567673,253.975618 L430.680677,228.647265 C430.241807,228.199559 429.701791,228 429.168633,228 C428.061173,228 427,228.876324 427,230.200353 L427,284.797912 C427,286.123676 428.061173,287 429.168633,287 C429.701791,287 430.241807,286.800441 430.680677,286.352735" id="Fill-181" fill="#082558"></path>
            <g id="Group-185" transform="translate(426.000000, 227.000000)">
                <mask id="mask-74" fill="#082558">
                    <use xlink:href="#path-73"></use>
                </mask>
                <g id="Clip-184"></g>
                <polygon id="Fill-183" fill="#082558" mask="url(#mask-74)" points="-8.44622222 68.3864211 40.4426667 68.3864211 40.4426667 -8.03463158 -8.44622222 -8.03463158"></polygon>
            </g>
            <path d="M407.319481,228.647265 L382.433551,253.975618 C380.52215,255.920882 380.52215,259.079118 382.433551,261.024382 L407.319481,286.352735 C407.758332,286.800441 408.298324,287 408.829745,287 C409.938872,287 411,286.123676 411,284.799647 L411,230.202088 C411,228.876324 409.938872,228 408.829745,228 C408.298324,228 407.758332,228.199559 407.319481,228.647265" id="Fill-186" fill="#082558"></path>
            <g id="Group-190" transform="translate(380.000000, 227.000000)">
                <mask id="mask-76" fill="#082558">
                    <use xlink:href="#path-75"></use>
                </mask>
                <g id="Clip-189"></g>
                <polygon id="Fill-188" fill="#082558" mask="url(#mask-76)" points="-8.27911111 68.3864211 40.6097778 68.3864211 40.6097778 -8.03463158 -8.27911111 -8.03463158"></polygon>
            </g>
            <path d="M362.680519,269.352735 L387.566449,244.024382 C389.47785,242.079118 389.47785,238.920882 387.566449,236.975618 L362.680519,211.647265 C362.241668,211.199559 361.701676,211 361.170255,211 C360.061128,211 359,211.876324 359,213.200353 L359,267.797912 C359,269.123676 360.061128,270 361.170255,270 C361.701676,270 362.241668,269.800441 362.680519,269.352735" id="Fill-191" fill="#082558"></path>
            <g id="Group-195" transform="translate(359.000000, 210.000000)">
                <mask id="mask-78" fill="#082558">
                    <use xlink:href="#path-77"></use>
                </mask>
                <g id="Clip-194"></g>
                <polygon id="Fill-193" fill="#082558" mask="url(#mask-78)" points="-8.79304843 68.3864211 39.7824501 68.3864211 39.7824501 -8.03463158 -8.79304843 -8.03463158"></polygon>
            </g>
            <path d="M328.351,245.320985 L303.022647,220.433633 C301.077382,218.522122 297.920882,218.522122 295.975618,220.433633 L270.647265,245.320985 C270.197824,245.759861 270,246.299884 270,246.831336 C270,247.938812 270.874588,249 272.198618,249 L326.797912,249 C328.121941,249 329,247.938812 329,246.831336 C329,246.299884 328.798706,245.759861 328.351,245.320985" id="Fill-196" fill="#082558"></path>
            <g id="Group-200" transform="translate(270.000000, 218.000000)">
                <mask id="mask-80" fill="#082558">
                    <use xlink:href="#path-79"></use>
                </mask>
                <g id="Clip-199"></g>
                <polygon id="Fill-198" fill="#082558" mask="url(#mask-80)" points="-8.24921053 40.3759158 68.1718421 40.3759158 68.1718421 -8.25566316 -8.24921053 -8.25566316"></polygon>
            </g>
            <path d="M328.351,223.319481 L303.022647,198.433551 C301.077382,196.52215 297.920882,196.52215 295.975618,198.433551 L270.647265,223.319481 C270.197824,223.758332 270,224.298324 270,224.83146 C270,225.938872 270.874588,227 272.198618,227 L326.797912,227 C328.121941,227 329,225.938872 329,224.83146 C329,224.298324 328.798706,223.758332 328.351,223.319481" id="Fill-201" fill="#082558"></path>
            <g id="Group-205" transform="translate(270.000000, 197.000000)">
                <mask id="mask-82" fill="#082558">
                    <use xlink:href="#path-81"></use>
                </mask>
                <g id="Clip-204"></g>
                <polygon id="Fill-203" fill="#082558" mask="url(#mask-82)" points="-8.24921053 38.4910526 68.1718421 38.4910526 68.1718421 -8.54842105 -8.24921053 -8.54842105"></polygon>
            </g>
            <path d="M253.319481,280.647265 L228.433551,305.975618 C226.52215,307.920882 226.52215,311.079118 228.433551,313.024382 L253.319481,338.352735 C253.756618,338.800441 254.298324,339 254.829745,339 C255.938872,339 257,338.123676 257,336.799647 L257,282.202088 C257,280.876324 255.938872,280 254.829745,280 C254.298324,280 253.756618,280.199559 253.319481,280.647265" id="Fill-206" fill="#082558"></path>
            <g id="Group-210" transform="translate(226.000000, 280.000000)">
                <mask id="mask-84" fill="#082558">
                    <use xlink:href="#path-83"></use>
                </mask>
                <g id="Clip-209"></g>
                <polygon id="Fill-208" fill="#082558" mask="url(#mask-84)" points="-8.07351579 68.3864211 40.5580632 68.3864211 40.5580632 -8.03463158 -8.07351579 -8.03463158"></polygon>
            </g>
            <path d="M209.680519,252.352735 L234.566449,227.024382 C236.47785,225.079118 236.47785,221.920882 234.566449,219.975618 L209.680519,194.647265 C209.243382,194.199559 208.701676,194 208.170255,194 C207.061128,194 206,194.876324 206,196.200353 L206,250.797912 C206,252.123676 207.061128,253 208.170255,253 C208.701676,253 209.243382,252.800441 209.680519,252.352735" id="Fill-211" fill="#082558"></path>
            <g id="Group-215" transform="translate(205.000000, 193.000000)">
                <mask id="mask-86" fill="#082558">
                    <use xlink:href="#path-85"></use>
                </mask>
                <g id="Clip-214"></g>
                <polygon id="Fill-213" fill="#082558" mask="url(#mask-86)" points="-8.58578677 68.3864211 39.7340513 68.3864211 39.7340513 -8.03463158 -8.58578677 -8.03463158"></polygon>
            </g>
            <path d="M169.649,28.6805188 L194.977353,53.5664491 C196.922618,55.4778503 200.080853,55.4778503 202.026118,53.5664491 L227.352735,28.6805188 C227.802176,28.241668 228,27.7016757 228,27.1685404 C228,26.0611277 227.125412,25 225.801382,25 L171.203824,25 C169.878059,25 169,26.0611277 169,27.1685404 C169,27.7016757 169.201294,28.241668 169.649,28.6805188" id="Fill-216" fill="#082558"></path>
            <g id="Group-220" transform="translate(168.000000, 25.000000)">
                <mask id="mask-88" fill="#082558">
                    <use xlink:href="#path-87"></use>
                </mask>
                <g id="Clip-219"></g>
                <polygon id="Fill-218" fill="#082558" mask="url(#mask-88)" points="-8.21005263 38.8671111 68.211 38.8671111 68.211 -8.494 -8.21005263 -8.494"></polygon>
            </g>
            <path d="M312.680519,58.3527353 L337.566449,33.0226471 C339.47785,31.0773824 339.47785,27.9208824 337.566449,25.9756176 L312.680519,0.647264706 C312.243382,0.197823529 311.701676,0 311.170255,0 C310.061128,0 309,0.876323529 309,2.20035294 L309,56.7979118 C309,58.1236765 310.061128,59 311.170255,59 C311.701676,59 312.243382,58.8004412 312.680519,58.3527353" id="Fill-221" fill="#082558"></path>
            <g id="Group-225" transform="translate(308.000000, 0.000000)">
                <mask id="mask-90" fill="#082558">
                    <use xlink:href="#path-89"></use>
                </mask>
                <g id="Clip-224"></g>
                <polygon id="Fill-223" fill="#082558" mask="url(#mask-90)" points="-8.19553684 68.0902105 40.4360421 68.0902105 40.4360421 -8.33084211 -8.19553684 -8.33084211"></polygon>
            </g>
            <path d="M253.319481,28.6472647 L228.433551,53.9756176 C226.52215,55.9208824 226.52215,59.0773824 228.433551,61.0226471 L253.319481,86.3527353 C253.756618,86.8004412 254.298324,87 254.829745,87 C255.938872,87 257,86.1236765 257,84.7996471 L257,30.2020882 C257,28.8763235 255.938872,28 254.829745,28 C254.298324,28 253.756618,28.1978235 253.319481,28.6472647" id="Fill-226" fill="#082558"></path>
            <g id="Group-230" transform="translate(226.000000, 28.000000)">
                <mask id="mask-92" fill="#082558">
                    <use xlink:href="#path-91"></use>
                </mask>
                <g id="Clip-229"></g>
                <polygon id="Fill-228" fill="#082558" mask="url(#mask-92)" points="-8.07351579 68.0902105 40.5580632 68.0902105 40.5580632 -8.33084211 -8.07351579 -8.33084211"></polygon>
            </g>
            <path d="M430.319323,348.649 L405.432327,373.977353 C403.522558,375.922618 403.522558,379.079118 405.432327,381.024382 L430.319323,406.352735 C430.758193,406.802176 431.298209,407 431.829652,407 C432.938827,407 434,406.123676 434,404.801382 L434,350.203824 C434,348.878059 432.938827,348 431.829652,348 C431.298209,348 430.758193,348.199559 430.319323,348.649" id="Fill-231" fill="#082558"></path>
            <g id="Group-235" transform="translate(403.000000, 347.000000)">
                <mask id="mask-94" fill="#082558">
                    <use xlink:href="#path-93"></use>
                </mask>
                <g id="Clip-234"></g>
                <polygon id="Fill-233" fill="#082558" mask="url(#mask-94)" points="-8.48732632 68.0894211 40.1442526 68.0894211 40.1442526 -8.33163158 -8.48732632 -8.33163158"></polygon>
            </g>
            <path d="M458.352735,331.320985 L433.024382,306.433633 C431.079118,304.522122 427.920882,304.522122 425.975618,306.433633 L400.649,331.320985 C400.199559,331.759861 400,332.299884 400,332.831336 C400,333.938812 400.876324,335 402.200353,335 L456.797912,335 C458.123676,335 459,333.938812 459,332.831336 C459,332.299884 458.800441,331.759861 458.352735,331.320985" id="Fill-236" fill="#082558"></path>
            <g id="Group-240" transform="translate(400.000000, 304.000000)">
                <mask id="mask-96" fill="#082558">
                    <use xlink:href="#path-95"></use>
                </mask>
                <g id="Clip-239"></g>
                <polygon id="Fill-238" fill="#082558" mask="url(#mask-96)" points="-8.49584211 39.4147778 67.9252105 39.4147778 67.9252105 -7.94633333 -8.49584211 -7.94633333"></polygon>
            </g>
        </g>
    </g>
</svg>
